<svg width="537" height="299" viewBox="0 0 537 299" fill="none" xmlns="http://www.w3.org/2000/svg">
<path d="M116.052 178.754C114.224 177.9 112.135 177.793 110.23 178.455C108.324 179.118 106.753 180.498 105.849 182.301C105.671 182.671 105.524 183.054 105.41 183.448L78.4404 185.06L74.4434 199.032L111.149 192.83C112.819 193.179 114.557 192.965 116.092 192.222C117.627 191.48 118.874 190.249 119.636 188.724C120.062 187.852 120.312 186.904 120.371 185.935C120.43 184.967 120.298 183.996 119.983 183.078C119.667 182.16 119.173 181.314 118.53 180.587C117.887 179.86 117.108 179.266 116.235 178.841C116.174 178.811 116.113 178.782 116.052 178.754Z" fill="#FFB6B6"/>
<path d="M56.5225 109.834C54.7453 109.107 52.8324 108.771 50.9138 108.849C48.9953 108.928 47.116 109.418 45.4039 110.287C43.6918 111.157 42.187 112.385 40.9919 113.887C39.7967 115.39 38.9391 117.133 38.4776 118.997L31.063 148.94L32.4577 201.324C32.4577 201.324 71.1597 208.75 77.6568 203.976C84.154 199.203 83.5439 195.649 84.1539 199.203C84.764 202.756 87.5526 204.247 87.5913 202.834C87.6301 201.42 87.9455 201.662 89.5646 201.236C91.1836 200.81 98.3295 198.176 98.3295 198.176L98.6495 183.241C98.6495 183.241 86.8359 178.762 83.9698 180.099C81.1038 181.435 84.5799 183.652 81.1038 181.435C77.6277 179.217 77.2478 172.219 76.6534 178.526C76.0591 184.833 74.3191 186.008 71.713 183.203C69.1068 180.399 57.0324 182.19 57.0324 182.19L64.7159 123.96C65.1023 121.031 64.508 118.057 63.0257 115.501C61.5435 112.946 59.2567 110.953 56.5225 109.834V109.834Z" fill="#6C63FF"/>
<path d="M317.157 265.178L317.564 254.148L275.212 247.329L274.612 263.608L317.157 265.178Z" fill="#FFB6B6"/>
<path d="M309.469 268.499L309.067 250.838L316.617 251.117L328.806 234.79C329.408 233.983 330.252 233.39 331.215 233.098C332.178 232.805 333.209 232.827 334.158 233.162C335.107 233.497 335.924 234.126 336.49 234.958C337.056 235.79 337.341 236.781 337.304 237.787L336.53 258.766L328.929 262.107L336.345 263.794L336.053 271.705L309.469 268.499Z" fill="#2F2E41"/>
<path d="M78.7979 290.472L212.941 274.874C212.941 274.874 270.868 278.22 284.46 269.378L298.792 267.569L299.569 246.516C299.569 246.516 290.805 246.581 285.766 244.233C280.727 241.885 284.229 239.012 279.424 241.837C274.62 244.662 275.128 245.001 271.413 243.703C267.699 242.405 97.3632 235.442 97.3632 235.442L78.7979 290.472Z" fill="#2F2E41"/>
<path d="M255.563 281.337L263.363 273.527L236.953 239.724L225.441 251.25L255.563 281.337Z" fill="#FFB6B6"/>
<path d="M247.668 278.543L259.386 265.323L264.731 270.662L284.771 266.983C285.761 266.801 286.783 266.94 287.688 267.38C288.593 267.82 289.333 268.538 289.801 269.429C290.269 270.32 290.44 271.337 290.289 272.332C290.139 273.327 289.674 274.248 288.962 274.96L274.126 289.813L266.281 287.092L270.57 293.373L264.977 298.973L247.668 278.543Z" fill="#2F2E41"/>
<path d="M25.8745 217.007L27.2081 248.007C28.778 284.5 68.9674 306.587 100.131 287.533C100.706 287.182 101.282 286.818 101.86 286.442C101.86 286.442 113.674 283.269 113.316 278.245C112.957 273.22 115.843 270.775 118.397 272.145C120.952 273.515 154.394 226.055 154.394 226.055C154.394 226.055 223.875 260.713 239.203 268.872L255.377 264.466C255.377 264.466 261.464 267.341 259.271 263.183C257.079 259.025 256.685 261.016 256.012 256.486C255.338 251.956 253.615 246.339 252.57 246.575C251.525 246.812 166.613 187.381 166.613 187.381C166.613 187.381 152.78 173.38 135.62 182.624C135.263 183.982 135.568 184.029 135.568 184.029L78.8839 230.218L70.8745 215.007L25.8745 217.007Z" fill="#2F2E41"/>
<path d="M63.9733 103.104L39.6696 91.7139L32.3934 104.375C32.3934 104.375 12.8516 132.261 12.5681 152.379C12.2847 172.497 15.7528 178.48 15.7528 178.48C15.7528 178.48 7.3271 184.779 11.5399 188.63C15.7528 192.48 25.0795 194.141 17.9161 195.811C10.7528 197.48 12.5681 214.379 20.5681 217.379C28.5681 220.379 71.5323 220.353 71.5323 220.353C71.1461 219.043 71.1177 217.653 71.45 216.328C71.7823 215.003 72.4632 213.791 73.4221 212.819C76.7528 209.48 79.7528 211.876 76.7528 206.678C73.7528 201.48 68.7528 204.48 72.7528 197.48C76.7528 190.48 76.7513 188.388 76.7513 188.388C76.7513 188.388 84.9057 172.869 72.6233 156.033C71.8746 155.007 72.5041 154.968 72.5041 154.968L62.5861 121.732L63.9733 103.104Z" fill="#6C63FF"/>
<path d="M24.8066 55.211C25.0122 60.3448 21.777 67.618 20.1838 72.0038C18.4804 76.6927 25.863 82.9167 30.5884 84.2796C30.8343 82.6552 31.6446 81.1694 32.877 80.083C32.5364 81.6311 32.5068 83.2314 32.7898 84.791L72.7376 93.8854C79.9243 85.563 87.1504 73.5986 85.5742 59.1687C85.9516 56.4287 85.5113 53.6381 84.3084 51.1474C83.1056 48.6567 81.1939 46.5767 78.8132 45.1686L58.6177 33.2381C50.0275 31.2825 39.2097 30.1017 33.005 35.4171C30.2328 37.8834 28.0552 40.9455 26.6353 44.3736C25.2154 47.8017 24.5902 51.5068 24.8066 55.211V55.211Z" fill="#2F2E41"/>
<path d="M60.5137 89.4885C73.2162 89.4885 83.5137 79.1911 83.5137 66.4885C83.5137 53.786 73.2162 43.4885 60.5137 43.4885C47.8111 43.4885 37.5137 53.786 37.5137 66.4885C37.5137 79.1911 47.8111 89.4885 60.5137 89.4885Z" fill="#FFB6B6"/>
<path d="M33.5694 54.2009L32.4595 59.0762L51.863 63.4935C51.8803 62.5075 52.1011 61.5357 52.5117 60.6391C52.9223 59.7425 53.5138 58.9404 54.2491 58.2832C53.8306 60.1949 53.8783 62.1792 54.3884 64.0685C64.8528 69.9405 74.2846 72.0208 82.7421 70.5234C83.8879 70.7842 85.0904 70.5792 86.0851 69.9534C87.0797 69.3277 87.7851 68.3324 88.0459 67.1866V67.1866C91.4488 52.2392 82.5338 36.9619 67.6597 33.2517C64.0443 32.3477 60.2847 32.1746 56.6015 32.7426C52.9182 33.3106 49.3855 34.6082 46.2104 36.5594C43.0352 38.5106 40.2815 41.0762 38.1109 44.1055C35.9402 47.1348 34.3962 50.5671 33.5694 54.201V54.2009Z" fill="#2F2E41"/>
<path d="M44.9136 22.0355C47.4721 21.4801 50.1798 21.6143 52.4931 19.8813L50.976 23.3638C55.1822 22.2114 59.6662 22.6593 63.5613 24.6208C64.7195 25.1401 65.7072 25.9763 66.4105 27.0329C66.7884 27.6711 67.0183 28.386 67.0832 29.1249C67.1481 29.8638 67.0463 30.6078 66.7853 31.3021C66.5366 31.8977 66.1665 32.4349 65.6985 32.8794C65.2304 33.3239 64.6749 33.6658 64.0672 33.8835C62.9903 34.2071 61.862 34.3252 60.7414 34.2316C56.0193 34.1216 51.2972 34.0116 46.5751 33.9015C44.7756 34.0133 42.9773 33.6639 41.3505 32.8862C40.4857 32.3521 39.7956 31.5771 39.365 30.6564C38.9344 29.7356 38.782 28.7091 38.9266 27.703C39.377 24.5373 42.3551 22.5908 44.9136 22.0355Z" fill="#2F2E41"/>
<path d="M169.679 202.296C169.624 202.23 169.561 202.172 169.491 202.123C169.319 201.923 169.109 201.759 168.874 201.64L167.191 200.74L156.018 188.335C155.371 187.998 154.619 187.926 153.92 188.134L153.891 188.143L149.105 189.623L144.988 190.9L139.238 192.683L100.072 204.81L74.3271 212.781C73.631 213.002 73.0493 213.486 72.7072 214.131C72.365 214.776 72.2897 215.529 72.4976 216.229C72.6186 216.615 72.8188 216.97 73.0854 217.274L73.9047 218.186L75.623 220.1L79.6041 228.35L80.7087 229.583C81.0607 229.975 81.5172 230.259 82.0247 230.402C82.5323 230.544 83.0699 230.539 83.5746 230.387L168.389 206.802C168.83 206.66 169.229 206.411 169.55 206.078C169.872 205.745 170.107 205.338 170.234 204.892C170.362 204.447 170.378 203.978 170.281 203.525C170.184 203.072 169.977 202.65 169.679 202.296V202.296Z" fill="#CCCCCC"/>
<path d="M164.643 79.5903L163.001 79.8564C162.55 79.9311 162.148 80.1808 161.881 80.5511L161.157 81.563L154.63 97.8848C154.365 98.258 154.258 98.7214 154.334 99.1733L155.098 103.824L152.208 186.829C152.281 187.258 152.512 187.645 152.855 187.913L165.527 204.865L165.823 205.101L166.462 205.6C166.789 205.853 167.195 205.982 167.608 205.965L168.685 205.914C168.93 205.902 169.169 205.838 169.387 205.727C169.605 205.616 169.797 205.459 169.951 205.268C170.105 205.079 170.218 204.859 170.28 204.622C170.342 204.386 170.352 204.139 170.31 203.898L166.634 81.0104C166.559 80.559 166.309 80.1557 165.937 79.8891C165.565 79.6225 165.103 79.5145 164.652 79.5889L164.643 79.5903Z" fill="#CCCCCC"/>
<path d="M161.893 86.04L156.111 103.653L153.874 174.007L162.874 182.007L161.893 86.04Z" fill="#6C63FF"/>
<path d="M117.18 193.357C115.352 192.503 113.263 192.395 111.358 193.058C109.452 193.72 107.881 195.1 106.977 196.904C106.799 197.273 106.652 197.657 106.538 198.051L79.5683 199.662L75.5713 213.635L112.277 207.433C113.947 207.782 115.685 207.568 117.22 206.825C118.755 206.082 120.002 204.852 120.764 203.326C121.624 201.565 121.748 199.534 121.111 197.68C120.473 195.827 119.125 194.303 117.363 193.443C117.302 193.414 117.241 193.385 117.18 193.357Z" fill="#FFB6B6"/>
<path d="M57.6509 124.437C55.8737 123.71 53.9608 123.374 52.0423 123.452C50.1237 123.53 48.2445 124.021 46.5323 124.89C44.8202 125.759 43.3154 126.987 42.1202 128.49C40.9251 129.993 40.0676 131.735 39.606 133.599L32.1914 163.542L33.5861 215.926C33.5861 215.926 72.2882 223.352 78.7853 218.579C85.2824 213.805 84.6723 210.252 85.2824 213.805C85.8924 217.359 88.6811 218.85 88.7198 217.436C88.7585 216.022 89.0739 216.264 90.693 215.838C92.3121 215.412 99.4579 212.779 99.4579 212.779L99.7779 197.843C99.7779 197.843 87.9644 193.365 85.0983 194.701C82.2322 196.037 85.7083 198.255 82.2322 196.037C78.7561 193.82 78.3762 186.822 77.7819 193.129C77.1875 199.436 75.4476 200.61 72.8414 197.806C70.2352 195.001 58.1609 196.793 58.1609 196.793L65.8443 138.563C66.2307 135.634 65.6364 132.66 64.1542 130.104C62.6719 127.549 60.3851 125.556 57.6509 124.437V124.437Z" fill="#6C63FF"/>
<path d="M3.94106e-06 298C-0.000344798 298.131 0.0224543 298.262 0.0670815 298.383C0.111709 298.505 0.17729 298.615 0.260048 298.708C0.342806 298.801 0.441104 298.875 0.549298 298.925C0.657492 298.975 0.773441 299 0.890474 299H536.11C536.346 299 536.572 298.895 536.739 298.707C536.906 298.52 537 298.265 537 298C537 297.735 536.906 297.48 536.739 297.293C536.572 297.105 536.346 297 536.11 297H0.890429C0.7734 297 0.657462 297.025 0.549275 297.075C0.441088 297.125 0.342789 297.199 0.260037 297.292C0.177284 297.385 0.111707 297.495 0.0670815 297.617C0.0224557 297.738 -0.000340796 297.869 3.94106e-06 298V298Z" fill="#CCCCCC"/>
<path d="M477.268 74.561H254.298C251.373 74.5577 249.003 72.1876 249 69.263V6.29774C249.003 3.37321 251.373 1.00324 254.298 1H477.268C480.193 1.00327 482.563 3.37321 482.566 6.29774V69.263C482.563 72.1876 480.193 74.5576 477.268 74.561Z" fill="white"/>
<path d="M477.268 75.5611H254.298C250.821 75.5571 248.004 72.7398 248 69.2632V6.29784C248.004 2.82128 250.821 0.00394 254.298 0H477.268C480.745 0.00394 483.562 2.82128 483.566 6.29784V69.2632C483.562 72.7398 480.745 75.5571 477.268 75.5611V75.5611ZM254.298 2.00005C251.925 2.00289 250.003 3.92543 250 6.2979V69.2632C250.003 71.6357 251.925 73.5583 254.298 73.5611H477.268C479.641 73.5583 481.563 71.6357 481.566 69.2632V6.29784C481.563 3.92537 479.64 2.00284 477.268 2L254.298 2.00005V2.00005Z" fill="#CCCCCC"/>
<path d="M274.618 30.8452C279.366 30.8452 283.215 26.9962 283.215 22.2482C283.215 17.5002 279.366 13.6511 274.618 13.6511C269.87 13.6511 266.021 17.5002 266.021 22.2482C266.021 26.9962 269.87 30.8452 274.618 30.8452Z" fill="#6C63FF"/>
<path d="M462.983 43.912H268.581C267.167 43.9139 266.02 42.7694 266.018 41.3555C266.016 39.9417 267.16 38.794 268.574 38.792H462.983C464.397 38.79 465.545 39.9346 465.547 41.3485C465.549 42.7623 464.404 43.91 462.99 43.912H462.983Z" fill="#6C63FF"/>
<path d="M442.077 54.028H268.581C267.167 54.028 266.021 52.8818 266.021 51.4679C266.021 50.0539 267.167 48.9077 268.581 48.9077H442.077C443.491 48.9077 444.637 50.0539 444.637 51.4679C444.637 52.8818 443.491 54.028 442.077 54.028Z" fill="#6C63FF"/>
<path d="M477.268 191.561H254.298C251.373 191.558 249.003 189.188 249 186.263V123.298C249.003 120.373 251.373 118.003 254.298 118H477.268C480.193 118.003 482.563 120.373 482.566 123.298V186.263C482.563 189.188 480.193 191.558 477.268 191.561Z" fill="white"/>
<path d="M477.268 192.561H254.298C250.821 192.557 248.004 189.74 248 186.263V123.298C248.004 119.821 250.821 117.004 254.298 117H477.268C480.745 117.004 483.562 119.821 483.566 123.298V186.263C483.562 189.74 480.745 192.557 477.268 192.561V192.561ZM254.298 119C251.925 119.003 250.003 120.925 250 123.298V186.263C250.003 188.636 251.925 190.558 254.298 190.561H477.268C479.641 190.558 481.563 188.636 481.566 186.263V123.298C481.563 120.925 479.64 119.003 477.268 119L254.298 119Z" fill="#CCCCCC"/>
<path d="M274.618 147.845C279.366 147.845 283.215 143.996 283.215 139.248C283.215 134.5 279.366 130.651 274.618 130.651C269.87 130.651 266.021 134.5 266.021 139.248C266.021 143.996 269.87 147.845 274.618 147.845Z" fill="#6C63FF"/>
<path d="M462.983 160.912H268.581C267.167 160.914 266.02 159.769 266.018 158.356C266.016 156.942 267.16 155.794 268.574 155.792H462.983C464.397 155.79 465.545 156.935 465.547 158.348C465.549 159.762 464.404 160.91 462.99 160.912H462.983Z" fill="#6C63FF"/>
<path d="M442.077 171.028H268.581C267.167 171.028 266.021 169.882 266.021 168.468C266.021 167.054 267.167 165.908 268.581 165.908H442.077C443.491 165.908 444.637 167.054 444.637 168.468C444.637 169.882 443.491 171.028 442.077 171.028Z" fill="#6C63FF"/>
</svg>
