<svg width="390" height="552" viewBox="0 0 390 552" fill="none" xmlns="http://www.w3.org/2000/svg">
<g clip-path="url(#clip0_137_221)">
<path d="M389.67 550.337C389.671 550.493 389.64 550.647 389.581 550.791C389.522 550.935 389.435 551.066 389.325 551.177C389.215 551.287 389.085 551.375 388.941 551.435C388.797 551.495 388.643 551.526 388.487 551.527H1.19003C0.874425 551.527 0.571771 551.401 0.348602 551.178C0.125434 550.955 3.05176e-05 550.652 3.05176e-05 550.337C3.05176e-05 550.021 0.125434 549.718 0.348602 549.495C0.571771 549.272 0.874425 549.147 1.19003 549.147H388.48C388.636 549.146 388.79 549.177 388.934 549.236C389.079 549.295 389.21 549.382 389.32 549.492C389.431 549.602 389.518 549.732 389.578 549.876C389.638 550.02 389.67 550.174 389.67 550.33V550.337Z" fill="#CCCCCC"/>
<path opacity="0.5" d="M234.898 387.357C230.679 386.503 226.357 386.268 222.07 386.66C221.674 386.657 221.294 386.498 221.013 386.218C220.732 385.937 220.573 385.557 220.57 385.16C220.578 384.765 220.739 384.388 221.019 384.109C221.298 383.829 221.675 383.668 222.07 383.66C226.627 383.265 231.217 383.536 235.695 384.464C236.079 384.57 236.404 384.824 236.6 385.17C236.797 385.516 236.847 385.925 236.742 386.309C236.636 386.692 236.382 387.018 236.037 387.214C235.691 387.411 235.281 387.462 234.898 387.357H234.898Z" fill="#CCCCCC"/>
<path d="M337.874 361.264C346.123 350.292 350.89 338.022 351.046 324.034C351.312 323.281 351.268 322.452 350.924 321.731C350.579 321.009 349.963 320.454 349.21 320.187L321.094 310.238C320.34 309.973 319.511 310.017 318.79 310.361C318.069 310.705 317.513 311.322 317.246 312.075L304.073 349.304C303.807 350.058 303.852 350.886 304.196 351.608C304.54 352.329 305.157 352.884 305.91 353.152L334.026 363.1C334.78 363.366 335.608 363.322 336.33 362.977C337.051 362.633 337.606 362.017 337.874 361.264V361.264Z" fill="#F2F2F2"/>
<path opacity="0.2" d="M331.526 360.6C332.28 360.866 333.108 360.822 333.83 360.477C334.551 360.133 335.106 359.517 335.374 358.764C343.623 347.792 348.39 335.522 348.546 321.534C348.718 321.039 348.756 320.506 348.657 319.991L349.21 320.187C349.963 320.454 350.579 321.01 350.924 321.731C351.268 322.452 351.312 323.281 351.046 324.034C350.89 338.022 346.123 350.292 337.874 361.264C337.606 362.017 337.051 362.633 336.33 362.977C335.608 363.322 334.78 363.366 334.026 363.1L305.91 353.152C305.411 352.973 304.968 352.666 304.626 352.262C304.284 351.857 304.056 351.369 303.963 350.848L331.526 360.6Z" fill="black"/>
<path d="M318.354 332.735L337.177 339.453C337.476 339.56 337.806 339.544 338.093 339.408C338.381 339.272 338.602 339.027 338.709 338.727C338.816 338.428 338.799 338.098 338.663 337.811C338.527 337.523 338.282 337.302 337.983 337.195L319.16 330.476C318.861 330.37 318.532 330.387 318.245 330.523C317.958 330.66 317.737 330.904 317.63 331.203C317.524 331.502 317.54 331.831 317.676 332.119C317.811 332.406 318.055 332.627 318.354 332.735H318.354Z" fill="white"/>
<path d="M335.246 331.782L339.387 333.26C339.536 333.314 339.693 333.338 339.85 333.33C340.008 333.323 340.162 333.285 340.305 333.218C340.448 333.151 340.576 333.057 340.682 332.94C340.788 332.824 340.87 332.687 340.924 332.539C340.977 332.391 341.001 332.233 340.993 332.076C340.986 331.919 340.948 331.764 340.88 331.622C340.813 331.479 340.719 331.351 340.602 331.245C340.485 331.139 340.349 331.057 340.201 331.004L340.194 331.001L336.053 329.523C335.753 329.417 335.424 329.435 335.138 329.571C334.851 329.707 334.63 329.952 334.524 330.251C334.417 330.55 334.433 330.879 334.569 331.166C334.704 331.453 334.948 331.674 335.246 331.782V331.782Z" fill="white"/>
<path d="M314.809 342.665L333.632 349.384C333.931 349.489 334.26 349.472 334.547 349.336C334.833 349.199 335.054 348.955 335.161 348.656C335.268 348.357 335.252 348.028 335.116 347.741C334.981 347.454 334.737 347.232 334.438 347.125L315.616 340.406C315.316 340.299 314.987 340.314 314.699 340.45C314.412 340.585 314.19 340.829 314.082 341.128C313.974 341.427 313.99 341.756 314.125 342.044C314.26 342.332 314.503 342.554 314.802 342.662L314.809 342.665Z" fill="white"/>
<path d="M316.581 337.7L335.404 344.419C335.704 344.526 336.033 344.51 336.321 344.374C336.609 344.238 336.83 343.994 336.938 343.694C337.045 343.395 337.029 343.065 336.893 342.777C336.757 342.49 336.513 342.268 336.213 342.161L336.211 342.16L317.388 335.441C317.089 335.335 316.759 335.352 316.473 335.488C316.186 335.625 315.965 335.869 315.858 336.168C315.752 336.467 315.768 336.797 315.903 337.084C316.039 337.371 316.283 337.592 316.582 337.7H316.581Z" fill="white"/>
<path d="M335.9 320.572C333.139 320.572 330.9 318.333 330.9 315.572C330.9 312.81 333.139 310.572 335.9 310.572C338.662 310.572 340.9 312.81 340.9 315.572C340.9 318.333 338.662 320.572 335.9 320.572Z" fill="#CCCCCC"/>
<path d="M152.9 99.6117C152.82 106.932 150.49 122.172 152.16 129.342L152.43 128.742C153.819 129.842 155.293 130.829 156.84 131.692C157.956 128.977 159.625 126.525 161.74 124.492C161.462 127.856 161.86 131.243 162.91 134.452C169.16 136.702 180.13 129.612 186.93 129.462C197.87 129.212 208.53 126.492 218.98 123.612C222.69 122.592 226.77 121.262 228.45 118.182C230.13 115.102 227.124 111.777 227.32 108.302C228.722 83.546 216.93 79.3965 205.71 72.7817C203.241 71.326 202.03 68.1917 199.24 66.9717C195.37 65.2817 190.76 66.0917 186.55 66.9417C187.596 66.5972 188.535 65.9894 189.278 65.1767C190.021 64.3641 190.541 63.374 190.79 62.3017C190.966 61.2506 190.848 60.1716 190.449 59.1834C190.05 58.1952 189.386 57.3364 188.53 56.7017C186.21 54.9117 182.75 54.6917 179.79 55.4517C176.931 56.3459 174.226 57.6748 171.77 59.3917C170.103 60.3062 168.613 61.5119 167.37 62.9517C166.785 63.633 166.422 64.4769 166.329 65.3704C166.236 66.2639 166.418 67.1644 166.85 67.9517C167.384 68.6265 168.063 69.1721 168.837 69.5479C169.611 69.9236 170.46 70.1197 171.32 70.1217C172.646 70.1603 173.971 70.0224 175.26 69.7117C169.35 71.1696 164.024 74.3925 159.99 78.9517C154.98 84.7817 152.991 92.2917 152.9 99.6117Z" fill="#2F2E41"/>
<path d="M327.7 170.156C326.683 172.315 324.864 173.991 322.63 174.828C320.396 175.666 317.924 175.599 315.739 174.641C315.298 174.44 314.874 174.202 314.472 173.93L288.723 192.848L274.527 183.16L312.602 161.059C313.856 159.479 315.599 158.36 317.557 157.875C319.515 157.39 321.578 157.567 323.425 158.379C324.471 158.85 325.415 159.524 326.201 160.36C326.987 161.196 327.601 162.179 328.007 163.252C328.414 164.326 328.605 165.469 328.569 166.616C328.534 167.763 328.273 168.892 327.801 169.939V169.939C327.769 170.012 327.735 170.084 327.7 170.156Z" fill="#FFB6B6"/>
<path d="M62.3104 152.988C64.6778 153.283 66.8367 154.49 68.3276 156.352C69.8186 158.215 70.524 160.586 70.2937 162.96C70.2393 163.442 70.1451 163.919 70.012 164.385L96.0015 182.971L91.2103 199.477L58.3607 170.167C56.4694 169.466 54.8636 168.158 53.7938 166.448C52.7239 164.738 52.2504 162.722 52.4468 160.714C52.5696 159.573 52.9159 158.467 53.4661 157.46C54.0162 156.452 54.7594 155.563 55.6532 154.843C56.547 154.123 57.5738 153.586 58.6752 153.262C59.7765 152.939 60.9308 152.836 62.072 152.959C62.1516 152.967 62.2311 152.977 62.3104 152.988Z" fill="#FFB6B6"/>
<path d="M250.773 533.902L259.143 533.831L262.847 500.797L250.495 500.901L250.773 533.902Z" fill="#FFB6B6"/>
<path d="M277.581 547.21C277.589 548.203 277.202 549.157 276.507 549.865C275.811 550.572 274.864 550.975 273.872 550.985L257.231 551.124L254.318 545.219L253.248 551.154L246.97 551.211L248.555 530.043L250.74 529.898L259.65 529.284L262.524 529.091L262.575 535.08L275.942 544.147C276.442 544.487 276.853 544.943 277.139 545.477C277.424 546.01 277.576 546.605 277.581 547.21Z" fill="#2F2E41"/>
<path d="M140.449 496.825L147.282 501.657L169.59 477.013L159.505 469.88L140.449 496.825Z" fill="#FFB6B6"/>
<path d="M154.429 523.288C153.855 524.098 152.984 524.647 152.006 524.815C151.028 524.983 150.024 524.756 149.213 524.184L135.627 514.574L136.713 508.08L132.377 512.272L127.249 508.649L140.903 492.397L142.761 493.555L150.351 498.263L152.796 499.786L149.337 504.676L154.888 519.844C155.096 520.413 155.163 521.023 155.083 521.623C155.003 522.223 154.778 522.794 154.429 523.288V523.288Z" fill="#2F2E41"/>
<path d="M244.496 266.074L220.185 209.619H164.189L180.34 268.537L244.496 266.074Z" fill="#FFB6B6"/>
<path d="M295.898 534.155C296.363 534.176 296.823 534.054 297.216 533.805C297.609 533.557 297.917 533.193 298.096 532.764C298.276 532.334 298.319 531.86 298.22 531.405C298.121 530.951 297.885 530.538 297.543 530.222L297.387 529.604C297.408 529.554 297.428 529.505 297.449 529.455C297.917 528.349 298.702 527.406 299.705 526.745C300.707 526.083 301.883 525.732 303.084 525.737C304.285 525.741 305.458 526.101 306.455 526.77C307.453 527.439 308.231 528.387 308.691 529.497C310.529 533.925 312.87 538.361 313.446 543.043C313.7 545.112 313.593 547.21 313.13 549.243C317.448 539.823 319.691 529.585 319.705 519.223C319.706 516.622 319.561 514.024 319.272 511.44C319.033 509.321 318.702 507.218 318.278 505.129C315.963 493.798 310.994 483.177 303.777 474.14C300.285 472.234 297.46 469.303 295.684 465.743C295.041 464.463 294.586 463.097 294.335 461.687C294.729 461.739 295.82 455.738 295.523 455.37C296.072 454.537 297.055 454.123 297.654 453.31C300.637 449.266 304.746 449.972 306.891 455.467C311.473 457.78 311.517 461.615 308.706 465.304C306.917 467.651 306.671 470.826 305.101 473.339C305.263 473.545 305.431 473.746 305.592 473.952C308.544 477.748 311.117 481.823 313.273 486.121C312.749 481.307 313.375 476.436 315.1 471.911C316.848 467.694 320.125 464.142 323.01 460.496C323.773 459.517 324.81 458.786 325.989 458.395C327.167 458.005 328.435 457.972 329.632 458.302C330.829 458.632 331.901 459.31 332.713 460.249C333.525 461.188 334.041 462.347 334.194 463.58C334.2 463.633 334.206 463.687 334.212 463.741C333.783 463.983 333.363 464.239 332.953 464.511C332.437 464.855 332.038 465.348 331.807 465.923C331.575 466.499 331.524 467.13 331.658 467.736C331.792 468.341 332.106 468.892 332.558 469.316C333.011 469.74 333.581 470.018 334.194 470.112L334.257 470.122C334.104 471.667 333.834 473.198 333.449 474.701C337.151 489.017 329.159 494.231 317.748 494.466C317.496 494.595 317.251 494.724 316.999 494.847C319.165 500.987 320.525 507.383 321.042 513.874C321.335 517.704 321.318 521.551 320.99 525.378L321.01 525.242C321.836 520.987 324.106 517.147 327.436 514.372C332.382 510.309 339.369 508.813 344.705 505.548C345.272 505.183 345.931 504.989 346.605 504.987C347.279 504.986 347.939 505.177 348.508 505.538C349.076 505.899 349.53 506.416 349.815 507.027C350.1 507.637 350.204 508.317 350.116 508.985L350.094 509.127C349.299 509.451 348.524 509.824 347.775 510.245C347.347 510.486 346.927 510.743 346.517 511.014C346.001 511.359 345.601 511.851 345.37 512.427C345.139 513.002 345.087 513.634 345.221 514.24C345.356 514.845 345.669 515.396 346.122 515.82C346.575 516.244 347.145 516.522 347.758 516.616L347.82 516.626C347.866 516.632 347.904 516.639 347.95 516.645C346.591 519.89 344.683 522.877 342.311 525.475C339.996 537.972 330.055 539.157 319.421 535.518H319.414C318.248 540.588 316.557 545.524 314.37 550.244H296.35C296.285 550.044 296.227 549.837 296.169 549.637C297.837 549.742 299.511 549.642 301.155 549.34C299.818 547.7 298.481 546.046 297.144 544.406C297.114 544.375 297.086 544.343 297.06 544.309C296.382 543.469 295.697 542.636 295.019 541.796L295.019 541.795C294.983 539.221 295.278 536.654 295.898 534.155L295.898 534.155Z" fill="#F2F2F2"/>
<path d="M100.903 534.155C100.438 534.176 99.9776 534.054 99.5845 533.806C99.1913 533.557 98.8842 533.193 98.7047 532.764C98.5251 532.334 98.482 531.86 98.5809 531.406C98.6799 530.951 98.9162 530.538 99.2579 530.222L99.4135 529.604C99.393 529.554 99.3724 529.505 99.3517 529.455C98.8834 528.349 98.0987 527.406 97.0963 526.745C96.0938 526.083 94.9182 525.732 93.7171 525.737C92.516 525.741 91.343 526.101 90.3455 526.77C89.3479 527.439 88.5703 528.387 88.1103 529.497C86.2717 533.925 83.9309 538.361 83.3545 543.043C83.1006 545.113 83.2077 547.21 83.671 549.243C79.3526 539.823 77.1102 529.585 77.0958 519.223C77.0949 516.622 77.2394 514.024 77.5286 511.44C77.7676 509.321 78.0991 507.218 78.5233 505.129C80.8378 493.798 85.8072 483.177 93.0234 474.14C96.516 472.234 99.3406 469.304 101.116 465.743C101.76 464.463 102.214 463.097 102.466 461.687C102.072 461.739 100.981 455.738 101.278 455.37C100.729 454.537 99.7461 454.123 99.1464 453.31C96.1641 449.266 92.0552 449.972 89.9102 455.467C85.328 457.78 85.2836 461.615 88.0952 465.304C89.884 467.651 90.1298 470.826 91.6993 473.339C91.5378 473.545 91.3698 473.746 91.2084 473.952C88.2567 477.748 85.684 481.824 83.5273 486.121C84.0518 481.307 83.4259 476.437 81.701 471.911C79.9529 467.694 76.6761 464.142 73.7906 460.496C73.0274 459.517 71.991 458.786 70.8124 458.395C69.6337 458.005 68.3657 457.973 67.1688 458.303C65.9718 458.633 64.8995 459.31 64.0875 460.249C63.2754 461.189 62.7601 462.348 62.6066 463.58C62.6007 463.633 62.5949 463.687 62.5893 463.741C63.0179 463.983 63.4374 464.239 63.848 464.511C64.3637 464.855 64.7632 465.348 64.9943 465.923C65.2254 466.499 65.2773 467.131 65.1432 467.736C65.009 468.342 64.6951 468.893 64.2425 469.317C63.7899 469.741 63.2198 470.018 62.6069 470.113L62.5441 470.122C62.6968 471.667 62.9667 473.198 63.3514 474.702C59.6497 489.017 67.6415 494.231 79.0529 494.466C79.3048 494.595 79.5503 494.724 79.8022 494.847C77.6354 500.987 76.2762 507.384 75.7589 513.875C75.4661 517.704 75.4833 521.551 75.8106 525.378L75.7912 525.242C74.9644 520.987 72.6945 517.147 69.3646 514.372C64.419 510.309 57.4318 508.813 52.0964 505.548C51.5293 505.184 50.87 504.989 50.1962 504.988C49.5223 504.986 48.8621 505.177 48.2933 505.538C47.7245 505.9 47.2709 506.416 46.986 507.027C46.701 507.637 46.5967 508.317 46.6852 508.985L46.707 509.127C47.5023 509.451 48.2767 509.824 49.0257 510.245C49.4543 510.486 49.8738 510.743 50.2844 511.015C50.8001 511.359 51.1997 511.851 51.4308 512.427C51.6619 513.002 51.7137 513.634 51.5796 514.24C51.4454 514.845 51.1315 515.396 50.679 515.82C50.2264 516.244 49.6562 516.522 49.0433 516.616L48.9805 516.626C48.9353 516.632 48.8965 516.639 48.8514 516.645C50.2103 519.89 52.1177 522.877 54.4899 525.475C56.8046 537.972 66.7459 539.157 77.3802 535.518H77.3867C78.5534 540.588 80.2439 545.524 82.431 550.244H100.451C100.516 550.044 100.574 549.837 100.632 549.637C98.964 549.742 97.2895 549.642 95.6457 549.34C96.9827 547.7 98.3197 546.046 99.6567 544.406C99.6865 544.375 99.7145 544.343 99.7407 544.309C100.419 543.469 101.103 542.636 101.782 541.796L101.782 541.795C101.818 539.221 101.523 536.654 100.903 534.155L100.903 534.155Z" fill="#F2F2F2"/>
<path d="M244.496 261.834L268.633 312.186L266.91 512.843H246.236C246.236 512.843 242.216 507.422 242.216 503.624C242.216 499.825 249.054 499.274 244.496 494.612C239.937 489.949 238.418 488.43 238.418 483.872V410.947L222.117 340.256L223.84 417.93L165.265 487.839L151.62 474.194C151.62 474.194 147.63 472.435 151.62 468.657C155.611 464.879 158.099 471.551 158.374 460.998C158.649 450.445 156.37 452.724 158.649 450.445C160.928 448.166 192.83 410.083 192.83 410.083C192.83 410.083 163.967 287.109 178.402 263.558L244.496 261.834Z" fill="#2F2E41"/>
<path d="M176.882 267.357C176.882 267.357 239.178 245.325 234.619 233.17C230.061 221.015 222.404 223.354 231.551 219.526C240.697 215.697 246.757 214.937 241.068 209.62C235.379 204.302 227.022 198.984 227.022 193.666C227.022 188.348 220.185 146.564 220.185 146.564H209.24L198.154 127.572H182.493L174.603 145.045H157.943L157.13 171.634C157.13 171.634 156.053 223.001 161.15 225.047C166.246 227.093 170.804 227.093 166.246 231.651C161.688 236.209 159.092 238.566 161.15 242.705C163.208 246.845 176.882 267.357 176.882 267.357Z" fill="#E6E6E6"/>
<path d="M167.766 152.642L157.943 145.045C157.943 145.045 141.176 145.045 138.897 154.161C136.618 163.278 122.9 185.572 122.9 185.572C122.9 185.572 109.269 177.712 103.951 177.712C98.6329 177.712 94.8344 181.511 94.8344 176.952C94.8344 172.394 97.8732 171.634 93.315 171.634C88.7568 171.634 76.6016 167.076 76.6016 167.076L63.6358 180.042C63.6358 180.042 65.2061 192.146 70.524 191.387C75.8419 190.627 78.8807 186.829 78.8807 191.387C78.8807 195.945 75.8419 202.782 82.6792 203.542C89.5165 204.302 135.099 215.697 135.099 215.697L166.246 170.115L167.766 152.642Z" fill="#E6E6E6"/>
<path d="M207.27 152.642L217.092 145.045C217.092 145.045 233.86 145.045 236.139 154.161C238.418 163.278 252.9 185.572 252.9 185.572C252.9 185.572 265.767 177.712 271.085 177.712C276.403 177.712 280.202 181.511 280.202 176.952C280.202 172.394 277.163 171.634 281.721 171.634C286.279 171.634 298.434 167.076 298.434 167.076L311.4 180.042C311.4 180.042 309.83 192.146 304.512 191.387C299.194 190.627 296.155 186.828 296.155 191.387C296.155 195.945 299.194 202.782 292.357 203.542C285.519 204.302 239.937 215.697 239.937 215.697L208.79 170.115L207.27 152.642Z" fill="#E6E6E6"/>
<path d="M192.145 123.446C178.755 123.446 167.9 112.591 167.9 99.2016C167.9 85.812 178.755 74.9575 192.145 74.9575C205.534 74.9575 216.389 85.812 216.389 99.2016C216.389 112.591 205.534 123.446 192.145 123.446Z" fill="#FFB6B6"/>
<path d="M165.69 95.5416C168.54 98.9916 172.78 98.8116 176.55 98.2616C177.74 98.0916 178.93 97.9016 180.12 97.6816C180.33 97.0116 180.57 96.3416 180.84 95.6916C181.956 92.9775 183.625 90.5254 185.74 88.4916C185.517 91.1506 185.723 93.8281 186.35 96.4216C188.56 95.9116 190.76 95.3416 192.95 94.7116C194.888 94.3966 196.631 93.3492 197.818 91.7858C199.005 90.2225 199.547 88.2628 199.33 86.3116C202.48 88.7116 205.91 90.7916 209.51 90.8316C211.54 90.7789 213.498 90.0777 215.1 88.8305C216.702 87.5834 217.862 85.8561 218.41 83.9016C219.39 80.9016 219.24 77.4416 218.84 74.2016C218.36 70.3516 217.28 66.1216 214.68 64.5716C212.59 63.3116 210.18 64.2116 208.03 65.2316C203.294 67.5049 198.803 70.2594 194.63 73.4516L194.58 74.5016C193.5 69.3316 189.93 65.3416 186.04 64.9416C183.42 64.6816 180.86 65.8916 178.39 67.1116C175.162 68.5358 172.16 70.426 169.48 72.7216C166.453 75.4754 164.35 79.0972 163.46 83.0916C162.53 87.4217 163.23 92.5617 165.69 95.5416Z" fill="#2F2E41"/>
<path d="M189.69 61.8957C189.441 61.9166 190.052 61.7765 189.853 61.8598C189.951 61.8153 190.044 61.763 190.133 61.7034C190.148 61.6937 190.345 61.5344 190.216 61.6453C190.513 61.4144 190.736 61.1026 190.859 60.7476C191.135 59.8848 191.263 58.9818 191.239 58.0764C191.189 56.8865 191.392 55.6997 191.834 54.5937C191.965 54.2943 192.165 54.0299 192.417 53.8221C192.669 53.6143 192.967 53.4689 193.286 53.3977C193.605 53.3266 193.937 53.3317 194.253 53.4126C194.57 53.4935 194.863 53.648 195.109 53.8634C195.927 54.6658 195.992 56.0214 196.05 57.0996C196.112 58.2189 195.994 59.341 195.699 60.4226C195.191 62.201 194.178 63.7934 192.781 65.0057C191.168 66.4182 189.143 67.2733 187.005 67.4439C186.712 67.4373 186.426 67.3454 186.184 67.1795C185.942 67.0136 185.753 66.7808 185.64 66.5094C185.528 66.238 185.497 65.9397 185.551 65.651C185.605 65.3623 185.742 65.0955 185.945 64.8832L188.629 62.335C188.91 62.0537 189.292 61.8957 189.69 61.8957C190.087 61.8957 190.469 62.0537 190.75 62.335C191.032 62.6163 191.19 62.9979 191.19 63.3957C191.19 63.7935 191.032 64.175 190.75 64.4564L188.066 67.0045L187.005 64.4439C187.448 64.404 187.886 64.3147 188.309 64.1776C188.768 64.0501 189.206 63.858 189.611 63.6071C190.007 63.3898 190.379 63.1299 190.719 62.8321C190.937 62.6408 191.145 62.4385 191.342 62.2261C191.414 62.1489 191.484 62.0704 191.552 61.9905C191.548 61.9962 191.835 61.6355 191.711 61.8005C192.022 61.3761 192.292 60.9237 192.518 60.4491C192.598 60.2811 192.664 60.1068 192.715 59.928C192.81 59.6338 192.888 59.3344 192.948 59.0312C193.062 58.3941 193.096 57.7452 193.05 57.0996C193.037 56.8258 193.01 56.5529 192.968 56.2819C192.931 56.139 192.903 55.9938 192.885 55.8471C192.879 55.4829 192.934 56.0416 193.124 56.1264L193.881 56.3312C194.005 56.3211 194.124 56.2834 194.231 56.2209C194.338 56.1584 194.429 56.0727 194.498 55.9701C194.53 55.8449 194.521 55.8671 194.471 56.0367C194.415 56.2358 194.37 56.4383 194.339 56.643C194.282 57.1188 194.248 57.5972 194.239 58.0764C194.229 59.0917 194.111 60.103 193.887 61.0932C193.677 62.0882 193.158 62.9915 192.404 63.6743C191.651 64.3571 190.701 64.7846 189.69 64.8958C189.293 64.8926 188.913 64.7335 188.633 64.4529C188.352 64.1723 188.193 63.7926 188.19 63.3958C188.198 63.0004 188.358 62.6234 188.638 62.3438C188.917 62.0642 189.294 61.9036 189.69 61.8957V61.8957Z" fill="#2F2E41"/>
<path d="M65.8739 159.264C74.1226 148.292 78.8903 136.022 79.0465 122.034C79.3123 121.281 79.2682 120.452 78.9239 119.731C78.5796 119.009 77.9633 118.454 77.21 118.187L49.0938 108.238C48.34 107.973 47.5115 108.017 46.7901 108.361C46.0688 108.705 45.5135 109.322 45.2461 110.075L32.0734 147.304C31.8076 148.058 31.8517 148.886 32.196 149.608C32.5403 150.329 33.1567 150.884 33.9099 151.152L62.0261 161.1C62.78 161.366 63.6084 161.322 64.3297 160.977C65.0511 160.633 65.6064 160.017 65.8739 159.264V159.264Z" fill="#6C63FF"/>
<path opacity="0.2" d="M59.526 158.6C60.2798 158.866 61.1083 158.822 61.8296 158.477C62.551 158.133 63.1063 157.517 63.3737 156.763C71.6226 145.792 76.3902 133.522 76.5464 119.534C76.7185 119.038 76.7565 118.506 76.6566 117.991L77.2099 118.187C77.9631 118.454 78.5795 119.009 78.9238 119.731C79.2681 120.452 79.3122 121.28 79.0464 122.034C78.8902 136.022 74.1226 148.292 65.8737 159.263C65.6063 160.017 65.051 160.633 64.3296 160.977C63.6083 161.322 62.7798 161.366 62.026 161.1L33.9097 151.152C33.4109 150.973 32.9682 150.666 32.6263 150.262C32.2844 149.857 32.0556 149.369 31.963 148.847L59.526 158.6Z" fill="black"/>
<path d="M46.3538 130.735L65.1765 137.454C65.4761 137.56 65.8058 137.544 66.0932 137.408C66.3806 137.272 66.6021 137.027 66.709 136.727C66.8159 136.428 66.7995 136.098 66.6633 135.811C66.5271 135.523 66.2823 135.302 65.9828 135.195L47.1601 128.476C47.0117 128.423 46.8544 128.4 46.6972 128.408C46.5399 128.416 46.3857 128.454 46.2434 128.522C46.1011 128.589 45.9734 128.684 45.8678 128.801C45.7621 128.918 45.6805 129.054 45.6275 129.202C45.5746 129.351 45.5514 129.508 45.5592 129.665C45.5671 129.822 45.6058 129.977 45.6732 130.119C45.7407 130.261 45.8355 130.389 45.9522 130.495C46.069 130.6 46.2055 130.682 46.3538 130.735V130.735Z" fill="white"/>
<path d="M63.2463 129.782L67.3873 131.26C67.5356 131.313 67.6928 131.336 67.8501 131.329C68.0074 131.321 68.1616 131.283 68.304 131.215C68.4464 131.148 68.5742 131.053 68.68 130.937C68.7858 130.82 68.8676 130.684 68.9207 130.536C68.9738 130.387 68.9972 130.23 68.9895 130.073C68.9819 129.915 68.9433 129.761 68.8761 129.619C68.8088 129.476 68.7142 129.349 68.5975 129.243C68.4809 129.137 68.3446 129.055 68.1963 129.002L68.1936 129.001L64.0526 127.523C63.7532 127.417 63.4237 127.433 63.1366 127.57C62.8494 127.706 62.6281 127.95 62.5213 128.25C62.4144 128.549 62.4308 128.879 62.5668 129.166C62.7027 129.453 62.9471 129.675 63.2463 129.782V129.782Z" fill="white"/>
<path d="M42.8094 140.665L61.632 147.384C61.9314 147.491 62.2612 147.475 62.5488 147.339C62.8364 147.203 63.0582 146.959 63.1654 146.659C63.2727 146.36 63.2567 146.03 63.1208 145.742C62.985 145.455 62.7405 145.233 62.4411 145.126L62.4384 145.125L43.6156 138.406C43.3162 138.3 42.9867 138.316 42.6996 138.452C42.4124 138.589 42.1912 138.833 42.0843 139.133C41.9775 139.432 41.9938 139.761 42.1297 140.049C42.2657 140.336 42.5101 140.558 42.8094 140.665V140.665Z" fill="white"/>
<path d="M44.5815 135.7L63.4043 142.419C63.5525 142.472 63.7098 142.495 63.8671 142.487C64.0243 142.48 64.1786 142.441 64.321 142.374C64.4634 142.307 64.5911 142.212 64.6969 142.095C64.8028 141.979 64.8845 141.842 64.9377 141.694C64.9908 141.546 65.0142 141.389 65.0065 141.231C64.9989 141.074 64.9603 140.92 64.8931 140.777C64.8258 140.635 64.7311 140.507 64.6145 140.401C64.4979 140.296 64.3615 140.214 64.2132 140.161L64.2106 140.16L45.3878 133.441C45.2396 133.388 45.0823 133.364 44.925 133.372C44.7677 133.38 44.6135 133.418 44.4711 133.486C44.3287 133.553 44.2009 133.648 44.0951 133.764C43.9893 133.881 43.9075 134.017 43.8544 134.165C43.8013 134.314 43.7779 134.471 43.7856 134.628C43.7932 134.786 43.8318 134.94 43.899 135.082C43.9663 135.225 44.061 135.352 44.1776 135.458C44.2942 135.564 44.4306 135.646 44.5788 135.699L44.5815 135.7Z" fill="white"/>
<path d="M63.9004 118.572C61.139 118.572 58.9004 116.333 58.9004 113.572C58.9004 110.81 61.139 108.572 63.9004 108.572C66.6618 108.572 68.9004 110.81 68.9004 113.572C68.9004 116.333 66.6618 118.572 63.9004 118.572Z" fill="#3F3D56"/>
<path d="M310.799 31.8192C305.763 19.0495 297.8 8.56788 285.961 1.11735C285.457 0.496516 284.728 0.100733 283.933 0.0168135C283.138 -0.0671063 282.342 0.167698 281.721 0.669722L258.534 19.4279C257.913 19.9314 257.517 20.6605 257.433 21.4554C257.349 22.2503 257.584 23.046 258.086 23.6679L282.924 54.3697C283.428 54.9906 284.157 55.3864 284.952 55.4703C285.747 55.5542 286.542 55.3194 287.164 54.8174L310.351 36.0592C310.972 35.5557 311.368 34.8266 311.451 34.0317C311.535 33.2368 311.301 32.4411 310.799 31.8192Z" fill="#6C63FF"/>
<path opacity="0.2" d="M306.912 36.882C307.533 36.3786 307.929 35.6494 308.013 34.8545C308.097 34.0597 307.862 33.264 307.36 32.642C302.324 19.8722 294.362 9.39065 282.522 1.94012C282.189 1.53415 281.756 1.22324 281.264 1.03883L281.721 0.669673C282.342 0.167657 283.138 -0.0671629 283.933 0.016749C284.728 0.100661 285.457 0.496453 285.961 1.11727C297.8 8.56782 305.763 19.0494 310.799 31.8191C311.301 32.4411 311.535 33.2368 311.451 34.0317C311.368 34.8266 310.972 35.5557 310.351 36.0591L287.164 54.8173C286.751 55.1491 286.258 55.3659 285.734 55.4455C285.21 55.5252 284.675 55.465 284.182 55.2711L306.912 36.882Z" fill="black"/>
<path d="M276.273 33.5314L291.846 21.0042C292.093 20.8046 292.251 20.5152 292.284 20.1995C292.318 19.8837 292.225 19.5675 292.026 19.3201C291.827 19.0727 291.538 18.9143 291.223 18.8797C290.907 18.8451 290.591 18.9371 290.343 19.1355L274.77 31.6627C274.523 31.8623 274.366 32.1517 274.332 32.4674C274.298 32.7831 274.391 33.0993 274.59 33.3466C274.789 33.594 275.078 33.7524 275.393 33.787C275.709 33.8216 276.025 33.7297 276.273 33.5314L276.273 33.5314Z" fill="white"/>
<path d="M284.298 18.6361L287.724 15.8801C287.971 15.6803 288.128 15.391 288.162 15.0755C288.195 14.76 288.102 14.444 287.904 14.1967C287.705 13.9495 287.416 13.7912 287.1 13.7564C286.785 13.7217 286.469 13.8134 286.221 14.0114L282.795 16.7674C282.548 16.9671 282.391 17.2564 282.357 17.572C282.323 17.8876 282.416 18.2037 282.615 18.451C282.814 18.6983 283.103 18.8567 283.418 18.8914C283.734 18.926 284.05 18.8343 284.298 18.6361L284.298 18.6361Z" fill="white"/>
<path d="M282.882 41.7467L298.455 29.2196C298.702 29.02 298.859 28.7305 298.893 28.4148C298.927 28.0991 298.834 27.7828 298.635 27.5354C298.436 27.288 298.147 27.1296 297.832 27.095C297.516 27.0604 297.199 27.1524 296.951 27.3509L281.379 39.878C281.132 40.0778 280.975 40.3671 280.941 40.6826C280.908 40.9981 281 41.3141 281.199 41.5614C281.398 41.8086 281.687 41.9669 282.002 42.0017C282.318 42.0364 282.634 41.9447 282.882 41.7467H282.882Z" fill="white"/>
<path d="M279.578 37.639L295.15 25.1119C295.273 25.0135 295.376 24.8919 295.452 24.7539C295.528 24.616 295.576 24.4644 295.593 24.3079C295.628 23.9918 295.536 23.6747 295.338 23.4264C295.139 23.178 294.85 23.0188 294.534 22.9837C294.218 22.9485 293.901 23.0404 293.652 23.2391L293.647 23.2431L278.074 35.7703C277.826 35.969 277.667 36.2582 277.632 36.5743C277.597 36.8904 277.689 37.2075 277.887 37.4558C278.086 37.7042 278.375 37.8634 278.691 37.8986C279.007 37.9337 279.324 37.8418 279.573 37.6431L279.578 37.6391V37.639Z" fill="white"/>
<path d="M270.825 14.5988C268.064 14.5988 265.825 12.3602 265.825 9.59875C265.825 6.83733 268.064 4.59875 270.825 4.59875C273.586 4.59875 275.825 6.83733 275.825 9.59875C275.825 12.3602 273.586 14.5988 270.825 14.5988Z" fill="#3F3D56"/>
<path d="M368.152 181.301C380.353 165.072 387.405 146.924 387.636 126.234C388.029 125.119 387.964 123.893 387.455 122.826C386.945 121.759 386.034 120.938 384.92 120.542L343.332 105.827C342.217 105.434 340.991 105.5 339.924 106.009C338.857 106.518 338.036 107.43 337.64 108.544L318.156 163.611C317.763 164.726 317.828 165.951 318.338 167.018C318.847 168.085 319.758 168.907 320.873 169.302L362.46 184.017C363.575 184.41 364.801 184.345 365.868 183.836C366.935 183.327 367.756 182.415 368.152 181.301Z" fill="#6C63FF"/>
<path opacity="0.2" d="M358.763 180.319C359.878 180.712 361.103 180.647 362.17 180.138C363.237 179.629 364.058 178.717 364.454 177.603C376.655 161.374 383.707 143.226 383.938 122.536C384.193 121.802 384.249 121.015 384.101 120.253L384.92 120.542C386.034 120.938 386.945 121.759 387.455 122.826C387.964 123.893 388.029 125.119 387.636 126.234C387.405 146.924 380.353 165.072 368.152 181.301C367.756 182.415 366.935 183.326 365.868 183.836C364.801 184.345 363.575 184.41 362.46 184.017L320.873 169.302C320.135 169.038 319.48 168.584 318.974 167.986C318.468 167.387 318.13 166.665 317.993 165.894L358.763 180.319Z" fill="black"/>
<path d="M339.279 139.103L367.12 149.041C367.34 149.12 367.573 149.155 367.806 149.144C368.039 149.133 368.268 149.076 368.479 148.976C368.69 148.876 368.879 148.736 369.036 148.563C369.193 148.39 369.314 148.188 369.392 147.968C369.471 147.748 369.505 147.515 369.493 147.282C369.481 147.049 369.424 146.821 369.323 146.61C369.223 146.399 369.082 146.21 368.909 146.054C368.735 145.898 368.533 145.777 368.313 145.7L340.471 135.762C340.252 135.683 340.019 135.649 339.787 135.661C339.554 135.672 339.326 135.73 339.116 135.829C338.905 135.929 338.716 136.069 338.56 136.242C338.404 136.415 338.283 136.617 338.205 136.836C338.126 137.055 338.092 137.288 338.104 137.521C338.115 137.753 338.173 137.981 338.272 138.192C338.372 138.402 338.512 138.591 338.685 138.747C338.858 138.904 339.06 139.024 339.279 139.103V139.103Z" fill="white"/>
<path d="M364.265 137.693L370.391 139.88C370.833 140.036 371.32 140.011 371.744 139.809C372.168 139.607 372.495 139.246 372.652 138.804C372.81 138.361 372.786 137.875 372.586 137.45C372.385 137.026 372.025 136.698 371.583 136.539V136.539L365.458 134.352C365.015 134.196 364.529 134.221 364.105 134.423C363.681 134.624 363.354 134.986 363.196 135.428C363.038 135.87 363.062 136.357 363.263 136.782C363.463 137.206 363.824 137.534 364.265 137.693V137.693Z" fill="white"/>
<path d="M334.036 153.79L361.878 163.728C362.321 163.887 362.808 163.862 363.233 163.661C363.659 163.459 363.986 163.097 364.144 162.654C364.302 162.211 364.278 161.723 364.077 161.298C363.875 160.873 363.513 160.546 363.07 160.387V160.387L335.229 150.449C335.009 150.371 334.777 150.337 334.544 150.348C334.311 150.36 334.083 150.417 333.873 150.517C333.662 150.617 333.473 150.757 333.317 150.93C333.161 151.102 333.04 151.304 332.962 151.524C332.884 151.743 332.849 151.976 332.861 152.208C332.872 152.441 332.93 152.669 333.03 152.88C333.129 153.09 333.269 153.279 333.442 153.435C333.615 153.591 333.817 153.712 334.036 153.79V153.79Z" fill="white"/>
<path d="M336.658 146.447L364.499 156.385C364.718 156.463 364.951 156.497 365.184 156.486C365.416 156.474 365.644 156.417 365.855 156.317C366.065 156.217 366.254 156.077 366.41 155.904C366.567 155.732 366.687 155.53 366.766 155.31C366.844 155.091 366.878 154.858 366.867 154.626C366.855 154.393 366.798 154.165 366.698 153.954C366.598 153.744 366.458 153.555 366.285 153.399C366.113 153.243 365.911 153.122 365.692 153.044V153.044L337.85 143.106C337.631 143.027 337.398 142.993 337.165 143.005C336.933 143.016 336.705 143.073 336.494 143.173C336.284 143.273 336.095 143.413 335.939 143.586C335.782 143.759 335.662 143.96 335.583 144.18C335.505 144.399 335.471 144.632 335.482 144.864C335.494 145.097 335.551 145.325 335.651 145.536C335.751 145.746 335.891 145.935 336.064 146.091C336.236 146.248 336.438 146.368 336.658 146.447V146.447Z" fill="white"/>
<path d="M365.233 121.112C361.148 121.112 357.837 117.801 357.837 113.716C357.837 109.632 361.148 106.321 365.233 106.321C369.317 106.321 372.629 109.632 372.629 113.716C372.629 117.801 369.317 121.112 365.233 121.112Z" fill="#3F3D56"/>
<path d="M93.7122 448.786C107.439 448.716 120.092 445.09 131.325 436.752C132.086 436.507 132.719 435.971 133.085 435.26C133.451 434.55 133.52 433.723 133.278 432.962L124.189 404.556C123.945 403.795 123.408 403.162 122.698 402.796C121.987 402.43 121.161 402.36 120.399 402.603L82.7864 414.637C82.0254 414.882 81.3924 415.418 81.0263 416.128C80.6602 416.839 80.591 417.666 80.8337 418.427L89.9221 446.833C90.1666 447.594 90.7029 448.227 91.4134 448.593C92.1239 448.959 92.9507 449.028 93.7122 448.786V448.786Z" fill="#F2F2F2"/>
<path opacity="0.2" d="M90.4004 443.33C90.6448 444.091 91.1811 444.724 91.8916 445.09C92.6022 445.456 93.4289 445.525 94.1905 445.283C107.917 445.213 120.571 441.587 131.803 433.249C132.302 433.086 132.749 432.794 133.099 432.403L133.278 432.962C133.52 433.723 133.451 434.55 133.085 435.26C132.719 435.971 132.086 436.507 131.325 436.752C120.093 445.09 107.439 448.716 93.7123 448.786C92.9508 449.028 92.124 448.959 91.4135 448.593C90.7029 448.227 90.1666 447.594 89.9222 446.833L80.8338 418.427C80.674 417.922 80.6507 417.384 80.7661 416.867C80.8815 416.35 81.1314 415.872 81.4907 415.483L90.4004 443.33Z" fill="black"/>
<path d="M104.619 415.984L110.656 435.036C110.703 435.186 110.779 435.326 110.88 435.447C110.981 435.568 111.105 435.669 111.244 435.742C111.384 435.815 111.536 435.86 111.693 435.874C111.85 435.889 112.009 435.872 112.159 435.825C112.31 435.778 112.449 435.701 112.57 435.6C112.691 435.499 112.791 435.375 112.864 435.236C112.937 435.096 112.982 434.943 112.996 434.786C113.01 434.629 112.993 434.471 112.946 434.321L112.943 434.311L106.905 415.259C106.808 414.957 106.595 414.706 106.313 414.561C106.032 414.416 105.704 414.388 105.402 414.484C105.099 414.58 104.847 414.791 104.701 415.072C104.554 415.353 104.525 415.681 104.619 415.984V415.984Z" fill="white"/>
<path d="M115.597 428.858L116.925 433.049C116.972 433.2 117.048 433.339 117.149 433.46C117.25 433.581 117.374 433.681 117.514 433.754C117.653 433.827 117.806 433.872 117.962 433.886C118.119 433.9 118.277 433.883 118.428 433.836C118.578 433.789 118.718 433.713 118.838 433.612C118.959 433.512 119.059 433.388 119.132 433.248C119.205 433.109 119.25 432.956 119.264 432.799C119.278 432.643 119.262 432.485 119.215 432.334L119.212 432.325L117.883 428.133C117.837 427.983 117.76 427.844 117.659 427.723C117.559 427.602 117.435 427.502 117.295 427.429C117.156 427.356 117.003 427.311 116.847 427.297C116.69 427.283 116.532 427.299 116.381 427.346C116.231 427.393 116.091 427.469 115.97 427.57C115.85 427.671 115.75 427.795 115.677 427.935C115.604 428.074 115.559 428.227 115.545 428.383C115.53 428.54 115.547 428.698 115.594 428.849L115.597 428.858Z" fill="white"/>
<path d="M94.5678 419.169L100.605 438.221C100.652 438.371 100.728 438.511 100.829 438.632C100.93 438.753 101.054 438.853 101.193 438.926C101.333 438.999 101.485 439.044 101.642 439.058C101.799 439.072 101.957 439.055 102.108 439.008C102.258 438.961 102.397 438.885 102.518 438.784C102.639 438.683 102.739 438.559 102.812 438.42C102.885 438.281 102.93 438.128 102.944 437.971C102.958 437.814 102.942 437.656 102.895 437.506L102.892 437.497L96.8541 418.444C96.8074 418.294 96.7314 418.154 96.6306 418.033C96.5297 417.911 96.406 417.811 96.2664 417.738C96.1268 417.665 95.9741 417.619 95.8171 417.605C95.66 417.591 95.5017 417.608 95.3512 417.655C95.2007 417.702 95.0609 417.778 94.9399 417.879C94.8188 417.98 94.7189 418.104 94.6459 418.244C94.5729 418.384 94.5282 418.537 94.5143 418.694C94.5004 418.851 94.5176 419.009 94.5649 419.16L94.5678 419.169Z" fill="white"/>
<path d="M99.5934 417.576L105.631 436.628C105.678 436.779 105.754 436.919 105.855 437.04C105.955 437.161 106.079 437.261 106.219 437.334C106.358 437.408 106.511 437.453 106.668 437.467C106.825 437.481 106.983 437.464 107.134 437.417C107.284 437.37 107.424 437.294 107.545 437.193C107.666 437.092 107.766 436.968 107.839 436.828C107.912 436.689 107.957 436.536 107.97 436.379C107.984 436.222 107.967 436.064 107.92 435.913L107.917 435.904L101.88 416.852C101.833 416.702 101.757 416.562 101.656 416.441C101.555 416.32 101.431 416.22 101.292 416.147C101.152 416.074 101 416.029 100.843 416.015C100.686 416.001 100.528 416.018 100.377 416.065C100.227 416.112 100.088 416.188 99.9667 416.289C99.8458 416.39 99.746 416.513 99.6729 416.653C99.5998 416.792 99.5549 416.945 99.5407 417.102C99.5266 417.259 99.5435 417.417 99.5905 417.567L99.5934 417.576Z" fill="white"/>
<path d="M128.9 424.572C126.139 424.572 123.9 422.333 123.9 419.572C123.9 416.811 126.139 414.572 128.9 414.572C131.662 414.572 133.9 416.811 133.9 419.572C133.9 422.333 131.662 424.572 128.9 424.572Z" fill="#CCCCCC"/>
<path d="M18.831 224.346C18.3424 222.418 20.1929 220.286 22.9643 219.584C25.7357 218.881 28.3784 219.875 28.8669 221.803C29.3555 223.731 27.505 225.863 24.7336 226.565C21.9623 227.268 19.3195 226.274 18.831 224.346Z" fill="white"/>
<path d="M52.6746 224.128C52.186 222.2 54.0366 220.068 56.8079 219.366C59.5793 218.663 62.222 219.657 62.7106 221.585C63.1991 223.513 61.3486 225.645 58.5772 226.347C55.8059 227.049 53.1632 226.056 52.6746 224.128Z" fill="#3F3D56"/>
<path d="M12.48 252.425C11.9915 250.497 13.842 248.364 16.6134 247.662C19.3847 246.96 22.0274 247.953 22.516 249.881C23.0046 251.809 21.154 253.941 18.3827 254.644C15.6113 255.346 12.9686 254.353 12.48 252.425Z" fill="#FF6584"/>
<path d="M4.59069 263.012C4.39005 261.217 5.24005 259.648 6.48922 259.508C7.7384 259.369 8.91371 260.711 9.11436 262.507C9.31501 264.302 8.465 265.871 7.21583 266.011C5.96665 266.15 4.79134 264.808 4.59069 263.012Z" fill="#E6E6E6"/>
<path d="M1.80773 284.22C1.60709 282.424 2.45709 280.856 3.70627 280.716C4.95544 280.576 6.13075 281.919 6.3314 283.715C6.53205 285.51 5.68205 287.079 4.43287 287.219C3.18369 287.358 2.00838 286.016 1.80773 284.22Z" fill="#3F3D56"/>
<path d="M36.4081 243.804C36.2074 242.008 37.0574 240.44 38.3066 240.3C39.5558 240.16 40.7311 241.503 40.9317 243.299C41.1324 245.094 40.2824 246.663 39.0332 246.803C37.784 246.942 36.6087 245.6 36.4081 243.804Z" fill="#E6E6E6"/>
<path d="M19.3763 237.406C19.1757 235.61 20.0257 234.041 21.2749 233.902C22.524 233.762 23.6994 235.105 23.9 236.9C24.1007 238.696 23.2506 240.265 22.0015 240.404C20.7523 240.544 19.577 239.201 19.3763 237.406Z" fill="#FF6584"/>
<path d="M40.3586 220.119C40.158 218.324 41.008 216.755 42.2572 216.615C43.5063 216.476 44.6817 217.818 44.8823 219.614C45.0829 221.409 44.2329 222.978 42.9838 223.118C41.7346 223.257 40.5593 221.915 40.3586 220.119Z" fill="#3F3D56"/>
<path d="M334.831 212.346C334.342 210.418 336.193 208.286 338.964 207.584C341.736 206.881 344.378 207.875 344.867 209.803C345.356 211.731 343.505 213.863 340.734 214.565C337.962 215.267 335.32 214.274 334.831 212.346Z" fill="white"/>
<path d="M368.675 212.128C368.186 210.2 370.037 208.068 372.808 207.366C375.579 206.663 378.222 207.657 378.711 209.585C379.199 211.513 377.349 213.645 374.577 214.347C371.806 215.049 369.163 214.056 368.675 212.128Z" fill="#3F3D56"/>
<path d="M328.48 240.425C327.991 238.497 329.842 236.365 332.613 235.662C335.385 234.96 338.027 235.953 338.516 237.881C339.005 239.809 337.154 241.941 334.383 242.644C331.611 243.346 328.969 242.353 328.48 240.425Z" fill="#FF6584"/>
<path d="M320.591 251.012C320.39 249.217 321.24 247.648 322.489 247.508C323.738 247.369 324.914 248.711 325.114 250.507C325.315 252.302 324.465 253.871 323.216 254.011C321.967 254.15 320.791 252.808 320.591 251.012Z" fill="#E6E6E6"/>
<path d="M317.808 272.22C317.607 270.424 318.457 268.855 319.706 268.716C320.955 268.576 322.131 269.919 322.331 271.715C322.532 273.51 321.682 275.079 320.433 275.219C319.184 275.358 318.008 274.016 317.808 272.22Z" fill="#3F3D56"/>
<path d="M352.408 231.804C352.207 230.008 353.057 228.44 354.307 228.3C355.556 228.16 356.731 229.503 356.932 231.299C357.132 233.094 356.282 234.663 355.033 234.803C353.784 234.942 352.609 233.6 352.408 231.804Z" fill="#E6E6E6"/>
<path d="M335.376 225.406C335.176 223.61 336.026 222.041 337.275 221.902C338.524 221.762 339.699 223.105 339.9 224.9C340.101 226.696 339.251 228.265 338.001 228.404C336.752 228.544 335.577 227.201 335.376 225.406Z" fill="#FF6584"/>
<path d="M356.359 208.119C356.158 206.324 357.008 204.755 358.257 204.615C359.506 204.476 360.682 205.818 360.882 207.614C361.083 209.409 360.233 210.978 358.984 211.118C357.735 211.257 356.559 209.915 356.359 208.119Z" fill="#3F3D56"/>
<path d="M118.874 308.264C127.123 297.292 131.89 285.022 132.047 271.034C132.312 270.281 132.268 269.452 131.924 268.731C131.58 268.009 130.963 267.454 130.21 267.187L102.094 257.238C101.34 256.973 100.511 257.017 99.7901 257.361C99.0688 257.705 98.5135 258.322 98.2461 259.075L85.0734 296.304C84.8076 297.058 84.8517 297.886 85.196 298.608C85.5403 299.329 86.1567 299.884 86.9099 300.152L115.026 310.1C115.78 310.366 116.608 310.322 117.33 309.977C118.051 309.633 118.606 309.017 118.874 308.264V308.264Z" fill="#F2F2F2"/>
<path opacity="0.2" d="M112.526 307.6C113.28 307.866 114.108 307.822 114.83 307.477C115.551 307.133 116.106 306.517 116.374 305.764C124.623 294.792 129.39 282.522 129.546 268.534C129.718 268.039 129.756 267.506 129.657 266.991L130.21 267.187C130.963 267.454 131.579 268.009 131.924 268.731C132.268 269.452 132.312 270.281 132.046 271.034C131.89 285.022 127.123 297.292 118.874 308.264C118.606 309.017 118.051 309.633 117.33 309.977C116.608 310.322 115.78 310.366 115.026 310.1L86.9097 300.152C86.4109 299.973 85.9682 299.666 85.6263 299.262C85.2844 298.857 85.0556 298.369 84.963 297.848L112.526 307.6Z" fill="black"/>
<path d="M99.3538 279.735L118.177 286.454C118.476 286.56 118.806 286.544 119.093 286.408C119.381 286.272 119.602 286.027 119.709 285.727C119.816 285.428 119.799 285.098 119.663 284.811C119.527 284.523 119.282 284.302 118.983 284.195L100.16 277.476C100.012 277.423 99.8544 277.4 99.6972 277.408C99.5399 277.416 99.3857 277.454 99.2434 277.522C99.1011 277.589 98.9734 277.684 98.8678 277.801C98.7621 277.918 98.6805 278.054 98.6275 278.202C98.5746 278.351 98.5514 278.508 98.5592 278.665C98.5671 278.822 98.6058 278.977 98.6732 279.119C98.7407 279.261 98.8355 279.389 98.9522 279.495C99.069 279.6 99.2055 279.682 99.3538 279.735V279.735Z" fill="white"/>
<path d="M116.246 278.782L120.387 280.26C120.536 280.313 120.693 280.336 120.85 280.329C121.007 280.321 121.162 280.283 121.304 280.215C121.446 280.148 121.574 280.053 121.68 279.937C121.786 279.82 121.868 279.684 121.921 279.536C121.974 279.387 121.997 279.23 121.99 279.073C121.982 278.915 121.943 278.761 121.876 278.619C121.809 278.476 121.714 278.349 121.598 278.243C121.481 278.137 121.345 278.055 121.196 278.002L121.194 278.001L117.053 276.523C116.753 276.417 116.424 276.433 116.137 276.57C115.849 276.706 115.628 276.95 115.521 277.25C115.414 277.549 115.431 277.879 115.567 278.166C115.703 278.453 115.947 278.675 116.246 278.782V278.782Z" fill="white"/>
<path d="M95.8092 289.665L114.632 296.384C114.78 296.437 114.937 296.46 115.095 296.452C115.252 296.445 115.406 296.406 115.549 296.339C115.691 296.272 115.819 296.177 115.925 296.06C116.03 295.944 116.112 295.807 116.165 295.659C116.218 295.511 116.242 295.354 116.234 295.196C116.227 295.039 116.188 294.885 116.121 294.742C116.053 294.6 115.959 294.472 115.842 294.366C115.726 294.261 115.589 294.179 115.441 294.126L115.438 294.125L96.6155 287.406C96.3161 287.3 95.9866 287.316 95.6994 287.452C95.4123 287.589 95.1911 287.833 95.0842 288.133C94.9774 288.432 94.9937 288.761 95.1296 289.049C95.2656 289.336 95.51 289.558 95.8092 289.665V289.665Z" fill="white"/>
<path d="M97.5815 284.7L116.404 291.419C116.553 291.472 116.71 291.495 116.867 291.487C117.024 291.48 117.179 291.441 117.321 291.374C117.463 291.307 117.591 291.212 117.697 291.095C117.803 290.979 117.885 290.842 117.938 290.694C117.991 290.546 118.014 290.389 118.007 290.231C117.999 290.074 117.96 289.92 117.893 289.777C117.826 289.635 117.731 289.507 117.614 289.401C117.498 289.296 117.361 289.214 117.213 289.161L117.211 289.16L98.3878 282.441C98.0884 282.334 97.7587 282.35 97.4711 282.486C97.1835 282.621 96.9617 282.866 96.8544 283.165C96.7471 283.465 96.7632 283.795 96.899 284.082C97.0349 284.37 97.2794 284.592 97.5788 284.699L97.5815 284.7Z" fill="white"/>
<path d="M116.9 267.572C114.139 267.572 111.9 265.333 111.9 262.572C111.9 259.81 114.139 257.572 116.9 257.572C119.662 257.572 121.9 259.81 121.9 262.572C121.9 265.333 119.662 267.572 116.9 267.572Z" fill="#CCCCCC"/>
</g>
<defs>
<clipPath id="clip0_137_221">
<rect width="389.67" height="551.527" fill="white" transform="matrix(-1 0 0 1 389.67 0)"/>
</clipPath>
</defs>
</svg>
