<svg width="961" height="553" viewBox="0 0 961 553" fill="none" xmlns="http://www.w3.org/2000/svg">
<g id="Frame 1">
<g id="kalendarz">
<g id="background">
<path id="Vector" d="M751 0H210C207.239 0 205 2.23858 205 5V338C205 340.761 207.239 343 210 343H751C753.761 343 756 340.761 756 338V5C756 2.23858 753.761 0 751 0Z" fill="#727082"/>
<path id="Vector_2" d="M349.309 40.7326C357.67 40.7326 364.447 33.9554 364.447 25.5952C364.447 17.2351 357.67 10.4579 349.309 10.4579C340.949 10.4579 334.172 17.2351 334.172 25.5952C334.172 33.9554 340.949 40.7326 349.309 40.7326Z" fill="white"/>
<path id="Vector_3" d="M599.581 40.7326C607.941 40.7326 614.718 33.9553 614.718 25.5952C614.718 17.2351 607.941 10.4579 599.581 10.4579C591.221 10.4579 584.443 17.2351 584.443 25.5952C584.443 33.9553 591.221 40.7326 599.581 40.7326Z" fill="white"/>
<path id="Vector_4" d="M355 0H343V30H355V0Z" fill="#E6E6E6"/>
<path id="Vector_5" d="M606 0H594V30H606V0Z" fill="#E6E6E6"/>
</g>
</g>
<g id="days">
<path id="day" d="M342.865 66.4661H241.949V132.061H342.865V66.4661Z" fill="white"/>
<path id="day_2" d="M468.26 66.4661H367.344V132.061H468.26V66.4661Z" fill="white"/>
<path id="day_3" d="M593.656 66.4661H492.74V132.061H593.656V66.4661Z" fill="white"/>
<path id="day_4" d="M719.051 66.4661H618.135V132.061H719.051V66.4661Z" fill="white"/>
<path id="day_5" d="M342.865 159.309H241.949V224.904H342.865V159.309Z" fill="white"/>
<path id="day_6" d="M468.26 159.309H367.344V224.904H468.26V159.309Z" fill="white"/>
<path id="day_7" d="M593.656 159.309H492.74V224.904H593.656V159.309Z" fill="white"/>
<path id="day_8" d="M719.051 159.309H618.135V224.904H719.051V159.309Z" fill="white"/>
<path id="day_9" d="M342.865 252.151H241.949V317.746H342.865V252.151Z" fill="white"/>
<path id="day_10" d="M468.26 252.151H367.344V317.746H468.26V252.151Z" fill="white"/>
<path id="day_11" d="M593.656 252.151H492.74V317.746H593.656V252.151Z" fill="white"/>
<path id="day_12" d="M719.051 252.151H618.135V317.746H719.051V252.151Z" fill="white"/>
</g>
<g id="checks">
<g id="check">
<path id="Vector_6" d="M691.414 99.2637C691.409 104.744 689.426 110.038 685.83 114.174C682.234 118.309 677.267 121.008 671.841 121.775C666.414 122.542 660.893 121.324 656.293 118.346C651.692 115.369 648.32 110.831 646.797 105.567C645.274 100.302 645.702 94.665 648.002 89.6909C650.302 84.7167 654.32 80.7396 659.318 78.4904C664.315 76.2413 669.956 75.871 675.205 77.4478C680.453 79.0246 684.957 82.4424 687.887 87.0733C690.195 90.7201 691.418 94.948 691.414 99.2637Z" fill="#978DD4"/>
<path id="Vector_7" d="M687.887 87.0733L665.423 109.533C664.011 107.347 656.146 97.1891 656.146 97.1891C657.154 96.1703 658.229 95.2208 659.365 94.347L665.888 103.044L685.256 83.6752C686.239 84.7223 687.119 85.8601 687.887 87.0733V87.0733Z" fill="white"/>
</g>
<g id="check_2">
<path id="Vector_8" d="M440.623 192.106C440.618 197.586 438.635 202.881 435.039 207.016C431.443 211.152 426.476 213.851 421.05 214.617C415.623 215.384 410.102 214.167 405.502 211.189C400.901 208.211 397.529 203.673 396.006 198.409C394.483 193.145 394.911 187.507 397.211 182.533C399.511 177.559 403.529 173.582 408.527 171.333C413.524 169.084 419.165 168.714 424.414 170.29C429.662 171.867 434.166 175.285 437.096 179.916C439.404 183.563 440.627 187.79 440.623 192.106V192.106Z" fill="#978DD4"/>
<path id="Vector_9" d="M437.096 179.916L414.632 202.376C413.22 200.19 405.355 190.032 405.355 190.032C406.363 189.013 407.438 188.063 408.574 187.189L415.097 195.886L434.466 176.518C435.448 177.565 436.329 178.702 437.096 179.916V179.916Z" fill="white"/>
</g>
<g id="check_3">
<path id="Vector_10" d="M315.228 192.106C315.222 197.587 313.24 202.881 309.644 207.016C306.048 211.152 301.08 213.851 295.654 214.618C290.228 215.384 284.707 214.167 280.106 211.189C275.505 208.211 272.134 203.673 270.611 198.409C269.088 193.145 269.516 187.508 271.816 182.533C274.116 177.559 278.134 173.582 283.131 171.333C288.129 169.084 293.77 168.714 299.018 170.29C304.267 171.867 308.77 175.285 311.701 179.916C314.008 183.563 315.232 187.791 315.228 192.106V192.106Z" fill="#978DD4"/>
<path id="Vector_11" d="M311.701 179.916L289.237 202.376C287.825 200.19 279.959 190.032 279.959 190.032C280.967 189.013 282.043 188.063 283.179 187.189L289.701 195.886L309.07 176.518C310.052 177.565 310.933 178.702 311.701 179.916Z" fill="white"/>
</g>
<g id="check_4">
<path id="Vector_12" d="M542.755 213.51C555.322 213.51 565.51 203.322 565.51 190.755C565.51 178.188 555.322 168 542.755 168C530.188 168 520 178.188 520 190.755C520 203.322 530.188 213.51 542.755 213.51Z" fill="#978DD4"/>
<path id="Vector_13" d="M547.231 190.755L551.708 186.279C552.299 185.684 552.631 184.88 552.63 184.042C552.629 183.203 552.296 182.4 551.703 181.807C551.11 181.214 550.307 180.881 549.468 180.88C548.63 180.879 547.825 181.211 547.231 181.802L542.755 186.278L538.278 181.802C537.684 181.211 536.88 180.879 536.042 180.88C535.203 180.881 534.4 181.214 533.807 181.807C533.214 182.4 532.881 183.203 532.88 184.042C532.879 184.88 533.211 185.684 533.802 186.279L538.278 190.755L533.802 195.231C533.507 195.525 533.272 195.874 533.111 196.259C532.951 196.643 532.868 197.055 532.867 197.472C532.867 197.888 532.948 198.301 533.107 198.686C533.266 199.071 533.5 199.421 533.795 199.715C534.089 200.01 534.439 200.243 534.824 200.403C535.209 200.562 535.621 200.643 536.038 200.642C536.455 200.642 536.867 200.559 537.251 200.399C537.636 200.238 537.985 200.003 538.278 199.708L542.755 195.231L547.231 199.708C547.525 200.003 547.874 200.238 548.258 200.399C548.643 200.559 549.055 200.642 549.472 200.642C549.888 200.643 550.301 200.562 550.686 200.403C551.071 200.243 551.421 200.01 551.715 199.715C552.01 199.421 552.243 199.071 552.402 198.686C552.562 198.301 552.643 197.888 552.642 197.472C552.642 197.055 552.559 196.643 552.398 196.259C552.238 195.874 552.003 195.525 551.708 195.231L547.231 190.755Z" fill="white"/>
</g>
<g id="check_5">
<path id="Vector_14" d="M292.755 121.51C305.322 121.51 315.51 111.322 315.51 98.755C315.51 86.1878 305.322 76 292.755 76C280.188 76 270 86.1878 270 98.755C270 111.322 280.188 121.51 292.755 121.51Z" fill="#978DD4"/>
<path id="Vector_15" d="M297.231 98.755L301.708 94.2785C302.299 93.6845 302.631 92.8801 302.63 92.0417C302.629 91.2034 302.296 90.3997 301.703 89.8069C301.11 89.2141 300.307 88.8807 299.468 88.8798C298.63 88.8788 297.825 89.2105 297.231 89.802L292.755 94.2784L288.278 89.802C287.684 89.2105 286.88 88.8788 286.042 88.8798C285.203 88.8807 284.4 89.2141 283.807 89.8069C283.214 90.3997 282.881 91.2034 282.88 92.0417C282.879 92.8801 283.211 93.6845 283.802 94.2785L288.278 98.755L283.802 103.231C283.507 103.525 283.272 103.874 283.111 104.259C282.951 104.643 282.868 105.055 282.867 105.472C282.867 105.888 282.948 106.301 283.107 106.686C283.266 107.071 283.5 107.421 283.795 107.715C284.089 108.01 284.439 108.243 284.824 108.403C285.209 108.562 285.621 108.643 286.038 108.642C286.455 108.642 286.867 108.559 287.251 108.399C287.636 108.238 287.985 108.003 288.278 107.708L292.755 103.231L297.231 107.708C297.525 108.003 297.874 108.238 298.258 108.399C298.643 108.559 299.055 108.642 299.472 108.642C299.888 108.643 300.301 108.562 300.686 108.403C301.071 108.243 301.421 108.01 301.715 107.715C302.01 107.421 302.243 107.071 302.402 106.686C302.562 106.301 302.643 105.888 302.642 105.472C302.642 105.055 302.559 104.643 302.398 104.259C302.238 103.874 302.003 103.525 301.708 103.231L297.231 98.755Z" fill="white"/>
</g>
</g>
<g id="womanCheck">
<path id="Vector_16" d="M885.89 512.8C901.233 512.8 913.67 500.362 913.67 485.02C913.67 469.678 901.233 457.24 885.89 457.24C870.548 457.24 858.11 469.678 858.11 485.02C858.11 500.362 870.548 512.8 885.89 512.8Z" fill="#978DD4"/>
<path id="Vector_17" d="M891.355 485.02L896.82 479.555C897.542 478.83 897.947 477.848 897.946 476.824C897.945 475.801 897.538 474.82 896.814 474.096C896.091 473.372 895.109 472.965 894.086 472.964C893.062 472.963 892.08 473.368 891.355 474.09L885.89 479.555L880.425 474.09C879.7 473.368 878.718 472.963 877.694 472.964C876.671 472.965 875.69 473.372 874.966 474.096C874.242 474.82 873.835 475.801 873.834 476.824C873.833 477.848 874.238 478.83 874.96 479.555L880.425 485.02L874.96 490.485C874.599 490.843 874.313 491.27 874.117 491.739C873.921 492.208 873.82 492.712 873.819 493.22C873.818 493.729 873.918 494.232 874.112 494.702C874.306 495.172 874.591 495.6 874.951 495.959C875.311 496.319 875.738 496.604 876.208 496.798C876.678 496.992 877.181 497.092 877.69 497.091C878.198 497.09 878.702 496.989 879.171 496.793C879.641 496.597 880.067 496.311 880.425 495.95L885.89 490.485L891.355 495.95C891.713 496.311 892.14 496.597 892.609 496.793C893.078 496.989 893.582 497.09 894.09 497.091C894.599 497.092 895.103 496.992 895.573 496.798C896.043 496.604 896.47 496.319 896.829 495.959C897.189 495.6 897.474 495.172 897.668 494.702C897.862 494.232 897.962 493.729 897.961 493.22C897.96 492.712 897.859 492.208 897.663 491.739C897.467 491.27 897.181 490.843 896.82 490.485L891.355 485.02Z" fill="white"/>
</g>
<g id="woman">
<path id="Vector_18" d="M844.127 318.8L850.154 354.414L907.412 323.8L844.127 318.8Z" fill="#2F2E41"/>
<path id="Vector_19" d="M837.286 540.242L825.291 539.755L821.471 493.467L839.174 494.186L837.286 540.242Z" fill="#FFB6B6"/>
<path id="Vector_20" d="M838.1 407.8C859.858 401.196 864.323 372.963 876.272 366.8C876.241 351.889 876.844 305.648 861.891 306.529C853.564 307.019 807.169 391.559 805.181 405.565C801.491 431.551 821.191 497.874 818.905 502.431L841.782 503.872L841.916 502.079C842.279 497.217 845.925 482.557 841.765 479.983L840.189 479.008C840.203 473.953 841.311 465.34 836.731 463.157C836.673 463.129 836.621 463.09 836.579 463.041C836.537 462.992 836.506 462.935 836.488 462.873C836.47 462.812 836.465 462.747 836.473 462.683C836.482 462.619 836.503 462.558 836.537 462.503L838.1 407.8Z" fill="#2F2E41"/>
<path id="Vector_21" d="M843.467 550.599L835.445 551.07L833.567 543.615L830.347 551.369L809.073 552.618C808.053 552.678 807.041 552.412 806.184 551.858C805.327 551.305 804.67 550.493 804.309 549.542C803.948 548.591 803.902 547.549 804.178 546.57C804.453 545.591 805.036 544.725 805.841 544.099L822.138 531.422L821.687 523.8L839.619 523.813L843.467 550.599Z" fill="#2F2E41"/>
<path id="Vector_22" d="M928.711 456.818L940.677 457.783L950.11 412.299L932.45 410.874L928.711 456.818Z" fill="#FFB6B6"/>
<path id="Vector_23" d="M924.021 341.547C913.29 360.32 894.092 364.803 874.185 368.087C865.529 355.918 852.336 338.951 865.034 331.043C872.106 326.638 933.406 291.008 942.87 301.56C967.576 329.109 949.951 417.76 951.469 415.8L931.899 415.517L930.746 414.133C929.213 412.292 928.215 410.067 927.861 407.701C927.507 405.335 927.811 402.918 928.739 400.711L929.456 399.007C928.009 396.992 927.165 394.61 927.022 392.138C926.879 389.665 927.444 387.202 928.65 385.036L928.898 384.591L924.021 341.547Z" fill="#2F2E41"/>
<path id="Vector_24" d="M928.256 440.338L946.076 442.336L944.765 449.859L959.524 464.283C960.253 464.995 960.734 465.921 960.897 466.925C961.06 467.929 960.897 468.958 960.43 469.863C959.964 470.768 959.22 471.501 958.305 471.954C957.391 472.408 956.355 472.559 955.349 472.385L934.352 468.759L932.029 460.693L929.319 467.89L921.402 466.523L928.256 440.338Z" fill="#2F2E41"/>
<path id="Vector_25" d="M881.885 191.8H873.672C871.995 191.8 870.343 192.205 868.857 192.98C867.371 193.755 866.097 194.877 865.142 196.249L859.195 204.8L844.379 207.483C839.232 210.647 835.355 215.498 833.415 221.202C831.475 226.906 831.593 233.105 833.75 238.731C844.234 266.029 849.295 317.194 839.105 339.8C839.105 339.8 900.925 345.375 916.453 326.8C931.98 308.225 919.466 217.8 919.466 217.8L896.362 204.8L890.416 196.25C889.461 194.877 888.186 193.755 886.701 192.98C885.215 192.205 883.562 191.8 881.885 191.8V191.8Z" fill="#978DD4"/>
<path id="Vector_26" d="M920.198 351.573C920.893 350.844 921.419 349.972 921.74 349.019C922.06 348.066 922.166 347.055 922.051 346.056C921.935 345.058 921.602 344.096 921.073 343.24C920.545 342.384 919.834 341.654 918.991 341.1L932.525 296.8L917.457 287.8L909.095 343.433C908.256 344.904 907.987 346.631 908.341 348.286C908.695 349.941 909.646 351.409 911.015 352.412C912.383 353.416 914.074 353.884 915.767 353.73C917.459 353.575 919.036 352.808 920.198 351.573H920.198Z" fill="#FFB6B6"/>
<path id="Vector_27" d="M933.529 301.8L915.448 294.8L916.22 285.813L894.736 238.997C893.675 236.682 893.137 234.164 893.163 231.62C893.189 229.076 893.777 226.569 894.886 224.276C895.994 221.984 897.596 219.963 899.578 218.356C901.559 216.75 903.872 215.597 906.351 214.98V214.98C910.831 213.871 915.569 214.576 919.527 216.94C923.485 219.305 926.339 223.136 927.463 227.593L941.583 283.836C943.216 292.565 941.369 299.085 933.529 301.8Z" fill="#978DD4"/>
<path id="Vector_28" d="M908.517 164.55C908.517 156.448 905.284 148.677 899.529 142.948C893.773 137.219 885.968 134 877.829 134C869.69 134 861.884 137.219 856.129 142.948C850.374 148.677 847.141 156.448 847.141 164.55V183.7C847.142 184.787 847.577 185.829 848.349 186.598C849.121 187.366 850.168 187.799 851.259 187.8H852.013C852.883 185.319 853.413 182.732 853.59 180.11C855.175 182.474 856.381 185.068 857.166 187.8H904.388C905.481 187.799 906.529 187.367 907.303 186.599C908.077 185.83 908.513 184.788 908.517 183.7C910.998 178.66 912.113 172.88 908.517 164.55Z" fill="#2F2E41"/>
<path id="Vector_29" d="M876.003 187.604C888.424 187.927 898.758 178.166 899.083 165.8C899.408 153.435 889.602 143.148 877.181 142.824C864.76 142.501 854.427 152.262 854.101 164.628C853.776 176.993 863.582 187.28 876.003 187.604Z" fill="#FFB8B8"/>
<path id="Vector_30" d="M853.476 165.128C853.261 164.881 853.102 164.591 853.01 164.277C852.917 163.963 852.894 163.634 852.94 163.31L855.605 144.835C855.658 144.459 855.804 144.102 856.031 143.797C856.257 143.491 856.556 143.247 856.901 143.085C870.504 136.747 884.299 136.739 897.902 143.061C898.263 143.232 898.574 143.492 898.803 143.818C899.032 144.143 899.173 144.522 899.211 144.918L901.995 159.417C902.025 159.733 901.988 160.052 901.888 160.354C901.787 160.655 901.624 160.932 901.41 161.168C900.977 161.642 900.371 172.06 899.727 172.06C900.27 165.85 898.956 162.879 894.198 165.914C893.763 165.913 893.337 165.789 892.969 165.556C892.602 165.323 892.308 164.991 892.123 164.599L890.176 160.445C890.05 160.176 889.84 159.955 889.576 159.816C889.313 159.677 889.012 159.626 888.717 159.672C888.423 159.718 888.151 159.859 887.944 160.072C887.736 160.285 887.604 160.56 887.568 160.854L887.183 163.917C887.113 164.468 886.844 164.975 886.425 165.342C886.007 165.71 885.469 165.913 884.91 165.914C876.96 169.841 866.534 168.784 855.207 165.914C854.879 165.914 854.554 165.844 854.256 165.708C853.957 165.573 853.691 165.375 853.476 165.128V165.128Z" fill="#2F2E41"/>
<path id="Vector_31" d="M894.532 289.74H857.658C856.395 289.739 855.185 289.239 854.292 288.35C853.399 287.461 852.897 286.256 852.896 284.999V245.541C852.897 244.284 853.399 243.079 854.292 242.19C855.185 241.301 856.395 240.801 857.658 240.8H894.532C895.795 240.801 897.006 241.301 897.899 242.19C898.791 243.079 899.294 244.284 899.295 245.541V284.999C899.294 286.256 898.791 287.461 897.899 288.35C897.006 289.239 895.795 289.739 894.532 289.74V289.74Z" fill="#3F3D56"/>
<path id="Vector_32" d="M858.695 249.323C860.221 249.323 861.457 248.092 861.457 246.574C861.457 245.055 860.221 243.824 858.695 243.824C857.17 243.824 855.934 245.055 855.934 246.574C855.934 248.092 857.17 249.323 858.695 249.323Z" fill="#E6E6E6"/>
<path id="Vector_33" d="M858.695 248.224C859.611 248.224 860.353 247.485 860.353 246.574C860.353 245.663 859.611 244.924 858.695 244.924C857.78 244.924 857.038 245.663 857.038 246.574C857.038 247.485 857.78 248.224 858.695 248.224Z" fill="#3F3D56"/>
<path id="Vector_34" d="M901.074 263.147C900.255 264.053 899.246 264.769 898.118 265.245C896.99 265.721 895.772 265.945 894.548 265.901C893.324 265.857 892.124 265.547 891.034 264.992C889.943 264.437 888.988 263.65 888.236 262.688L855.177 271.8L850.154 260.8L890.129 250.552C891.836 249.401 893.909 248.914 895.953 249.183C897.997 249.451 899.872 250.457 901.221 252.01C902.57 253.562 903.3 255.553 903.273 257.606C903.246 259.658 902.464 261.63 901.074 263.147H901.074Z" fill="#FFB8B8"/>
<path id="Vector_35" d="M859.104 272.083L849.828 275.031C839.739 285.642 836.17 277.942 824.281 277.145C822.044 276.996 820.293 275.167 819.078 271.713C817.422 266.855 817.588 261.565 819.543 256.819L836.058 215.615L842.97 209.977L852.622 221.491L845.212 253.145L857.377 259.318L859.104 272.083Z" fill="#978DD4"/>
</g>
<g id="man">
<path id="Vector_36" d="M123.689 540.178L136.446 540.177L142.515 490.974L123.687 490.975L123.689 540.178Z" fill="#FFB6B6"/>
<path id="Vector_37" d="M120.44 536.011V552.541H161.57V552.021C161.569 547.775 159.882 543.704 156.88 540.701C153.878 537.699 149.806 536.012 145.56 536.011L138.04 530.311L137.65 530.471L124.03 536.011H120.44Z" fill="#2F2E41"/>
<path id="Vector_38" d="M8.42603 523.593L19.843 529.283L47.224 487.954L30.373 479.556L8.42603 523.593Z" fill="#FFB6B6"/>
<path id="Vector_39" d="M0 533.211L36.81 551.551L37.04 551.091C37.9791 549.21 38.5384 547.162 38.6858 545.065C38.8332 542.968 38.5658 540.862 37.899 538.868C37.2322 536.874 36.179 535.031 34.7996 533.445C33.4202 531.858 31.7417 530.559 29.8599 529.621L25.6699 521.171L25.2299 521.141L10.59 520.011L10.29 519.861L7.36993 518.411L0 533.211Z" fill="#2F2E41"/>
<path id="Vector_40" d="M132.341 275.712L62 278.174L61.51 277.461C61.51 277.461 55.51 291.461 55.51 303.461C55.51 307.451 58.2848 333.546 56.8742 338.483C56.6988 339.097 57.9058 340.602 57.51 343.461C57.2531 345.317 55.8357 343.89 55.51 346.461C55.2762 348.307 57.771 349.326 57.51 351.461C57.2248 353.794 53.7931 361.35 53.4842 363.945C50.1955 391.571 45.8168 431.593 45.8168 431.593C45.8168 431.593 28.2302 478.696 24.51 479.461C18.2654 480.746 14.0495 492.1 17.51 494.461C19.1577 495.586 40.4545 503.15 40.4545 503.15C41.6246 503.362 45.2854 501.525 42.9533 497.183C42.524 496.384 45.0844 498.418 45.51 497.461C45.9625 496.444 45.0741 492.394 45.5924 491.265C50.2467 481.121 57.3925 467.065 64.1643 459.847C74.1701 449.183 80.5065 435.601 82.249 421.082L97.7815 334.957L103.105 359.109L107.51 363.461L106.302 373.61L106.51 383.461L117.51 424.461C117.51 424.461 119.16 501.03 116.51 503.461C115.075 504.778 108.985 520.999 120.51 522.461L141.448 520.846C141.448 520.846 144.269 514.901 142.859 512.785C141.448 510.669 141.533 511.247 143.254 507.784C144.975 504.321 144.269 498.454 144.269 498.454C147.012 470.88 148.094 443.165 147.51 415.461C146.46 369.958 140.1 317.684 140.1 316.619C140.046 315.53 140.247 314.444 140.685 313.446V310.574L137.984 300.397L132.341 275.712Z" fill="#2F2E41"/>
<path id="Vector_41" d="M41.2742 301.297C40.6844 300.289 40.3227 299.164 40.2147 298.001C40.1066 296.838 40.2549 295.666 40.649 294.567C41.0431 293.467 41.6734 292.468 42.4955 291.638C43.3177 290.809 44.3117 290.17 45.4075 289.766L44.9021 239.225L57.3684 247.111L55.9355 295.014C56.4916 296.9 56.3365 298.924 55.4998 300.703C54.663 302.482 53.2027 303.893 51.3955 304.667C49.5884 305.442 47.5599 305.526 45.6944 304.905C43.829 304.284 42.2563 303 41.2742 301.297Z" fill="#FFB8B8"/>
<path id="Vector_42" d="M44.1201 280.11L45.1812 280.058L45.3076 280.062L49.2337 280.048L55.7 280.034L56.1684 280.027L56.3792 280.068L58.5867 280.452L58.6782 279.859L62.9812 271.64L66.2894 267.09L65.0858 261.728L62.7119 258.771L66.7439 253.885L67.2533 251.472L70.628 235.601L81.8142 182.963L81.8151 182.931L82.0501 181.814L85.6879 164.714L84.5672 160.414L83.3183 155.693C82.5193 152.696 80.6676 150.087 78.1021 148.343C76.9887 147.59 75.7631 147.017 74.4708 146.647C72.8236 146.159 71.0935 146.017 69.3887 146.229L69.3696 146.235C68.4022 146.355 67.4517 146.585 66.5362 146.92L66.1719 147.062C65.665 147.267 65.1717 147.505 64.6948 147.773C63.2173 148.595 61.9179 149.702 60.8723 151.03C59.8267 152.359 59.0558 153.882 58.6045 155.512L46.752 168.715L44.6672 176.185L43.9968 178.585L41.8482 191.375L41.8802 241.707L41.4977 243.988L40.9537 256.624L43.0793 259.52L40.6778 263.032L40.5955 264.959L40.5793 265.456L43.7868 268.713L43.9914 275.737L44.1201 280.11Z" fill="#3F3D56"/>
<path id="Vector_43" d="M55.6984 292.166C73.4592 295.237 85.3691 294.068 92.6984 283.166C102.26 270.99 119.649 285.367 134.321 290.712L136.061 288.832L139.021 285.642L136.301 282.562L139.021 276.622L136.751 269.292L133.851 268.762L134.631 262.452L135.851 258.762L132.271 254.832L129.231 245.022L131.421 224.492C134.418 196.351 128.611 167.974 114.801 143.272L106.491 135.812L103.041 132.712L98.4112 124.072L93.5212 124.642L80.2812 126.172L79.8312 127.252L76.5812 135.092L64.7747 147.775C63.1048 149.568 61.836 151.697 61.0526 154.019C60.2692 156.341 59.9892 158.804 60.2312 161.242V161.242L60.5712 164.662L60.8212 167.122L62.0012 178.962L66.8112 227.332L67.1712 229.902L71.0412 257.712C64.7512 263.792 64.3684 262.466 61.6983 273.166C61.3983 274.356 57.9183 277.006 57.6983 278.166C57.3883 279.806 55.6984 292.166 55.6984 292.166Z" fill="#3F3D56"/>
<path id="Vector_44" d="M91.7596 118.975C104.46 118.975 114.756 108.68 114.756 95.9792C114.756 83.2787 104.46 72.983 91.7596 72.983C79.0592 72.983 68.7634 83.2787 68.7634 95.9792C68.7634 108.68 79.0592 118.975 91.7596 118.975Z" fill="#FFB6B6"/>
<path id="Vector_45" d="M67.7003 78.6682C70.787 75.4544 75.7179 73.8692 79.9048 75.3943C80.8411 72.7151 82.4945 70.3441 84.685 68.5395C86.8755 66.7349 89.5191 65.5659 92.328 65.1597C95.1369 64.7535 98.0034 65.1257 100.615 66.2358C103.227 67.346 105.485 69.1514 107.142 71.4556C107.899 71.1154 108.732 70.9766 109.559 71.0526C110.386 71.1286 111.179 71.4168 111.862 71.8894C113.218 72.8536 114.311 74.1426 115.039 75.6383C116.92 79.2101 117.796 83.2248 117.575 87.2552C117.355 91.2855 116.045 95.1806 113.786 98.5259C114.686 96.7087 112.156 99.8384 109.69 99.0184C107.572 98.4632 98.8701 92.8836 96.6984 93.1657C94.5271 93.4478 93.8226 91.6967 91.6984 91.1657C89.6179 90.5002 84.3067 99.1012 83.2423 104.792C83.0406 105.871 82.5508 107.211 81.4539 107.235C80.103 107.265 79.6985 105.331 78.559 104.604C78.022 104.331 77.3998 104.277 76.8237 104.454C76.2476 104.63 75.7625 105.023 75.4707 105.551C75.2044 106.092 75.0713 106.69 75.0826 107.294C75.0939 107.897 75.2492 108.489 75.5356 109.021C76.1178 110.077 76.8668 111.033 77.7537 111.85L77.1637 112.175C76.5825 112.591 75.8747 112.792 75.1615 112.744C74.4483 112.695 73.7742 112.4 73.2547 111.909C71.0584 112.9 65.0848 107.312 65.8778 103.931C64.2098 99.787 63.2978 95.3776 63.1848 90.9118C63.0926 86.4073 64.7055 82.0342 67.7003 78.6682Z" fill="#2F2E41"/>
<path id="Vector_46" d="M236.391 215.743C235.277 216.094 234.1 216.197 232.942 216.043C231.785 215.89 230.675 215.485 229.69 214.857C228.706 214.228 227.872 213.391 227.246 212.405C226.62 211.419 226.218 210.308 226.068 209.15L176.679 198.408L187.139 188.006L233.525 200.052C235.487 199.929 237.426 200.53 238.975 201.741C240.524 202.953 241.574 204.69 241.927 206.624C242.281 208.558 241.912 210.555 240.892 212.236C239.872 213.916 238.27 215.164 236.391 215.743V215.743Z" fill="#FFB8B8"/>
<path id="Vector_47" d="M102.919 144.444C100.057 144.549 97.3105 145.604 95.1147 147.444C93.8997 148.451 92.8864 149.679 92.1287 151.064C91.2947 152.565 90.7744 154.221 90.5994 155.93L90.5999 155.94C90.3439 158.456 90.839 160.992 92.0228 163.228C93.2066 165.463 95.0259 167.298 97.2514 168.501L113.521 177.318L115.582 178.432C129.445 192.561 152.82 199.947 179.711 204.847L195.171 209.076L200.368 207.147L201.626 212.088L206.801 212.258L209.615 211.673L215.503 209.364L216.628 207.102L216.627 207.092L219.043 196.372L219.06 196.302L219.059 196.292L219.623 193.839L216.302 192.302L213.414 188.444L208.191 188.549L203.428 188.964L202.032 185.699L141.674 157.769L129.176 151.98L129.145 151.962L128.55 151.683L112.246 144.139L107.808 144.28L102.919 144.444Z" fill="#3F3D56"/>
</g>
</g>
</svg>
